<svg width="42" height="46" viewBox="0 0 42 46" fill="none" xmlns="http://www.w3.org/2000/svg">
    <path fill-rule="evenodd" clip-rule="evenodd" d="M20.2448 0.224665C20.7304 0.0357888 21.2693 0.0357888 21.7549 0.224665L40.5049 7.51633C41.332 7.83798 41.8646 8.64828 41.8318 9.53512L41.4718 19.2535C41.0287 31.2163 33.3209 41.6937 22.0324 45.6779L21.6932 45.7976C21.2445 45.9559 20.7552 45.9559 20.3065 45.7976L19.9673 45.6779C8.67876 41.6937 0.970948 31.2163 0.527881 19.2535L0.167942 9.53512C0.135096 8.64828 0.667649 7.83798 1.49475 7.51633L20.2448 0.224665ZM4.38662 10.8624L4.69169 19.0993C5.06681 29.2275 11.5172 38.1135 20.9998 41.6207C30.4825 38.1135 36.9329 29.2275 37.308 19.0993L37.6131 10.8624L20.9998 4.40167L4.38662 10.8624Z" fill="#00812A"/>
    <path fill-rule="evenodd" clip-rule="evenodd" d="M34.973 16.1396L18.3063 32.8063C17.4927 33.6199 16.1736 33.6199 15.36 32.8063L8.06836 25.5146L11.0146 22.5684L16.8332 28.3869L32.0267 13.1934L34.973 16.1396Z" fill="#00812A"/>
</svg>
