<svg width="20" height="20" viewBox="0 0 20 20" fill="none" xmlns="http://www.w3.org/2000/svg">
    <path d="M12.1216 10.0003L18.5318 3.59011L19.8537 2.26819C20.0488 2.07318 20.0488 1.7563 19.8537 1.56129L18.4393 0.146875C18.2443 -0.048125 17.9274 -0.048125 17.7324 0.146875L10.0003 7.87899L2.2682 0.14625C2.07319 -0.04875 1.75631 -0.04875 1.5613 0.14625L0.146256 1.56067C-0.0487521 1.75567 -0.0487521 2.07256 0.146256 2.26757L7.879 10.0003L0.146256 17.7324C-0.0487521 17.9274 -0.0487521 18.2443 0.146256 18.4393L1.56067 19.8537C1.75568 20.0487 2.07256 20.0487 2.26757 19.8537L10.0003 12.1216L16.4105 18.5318L17.7324 19.8537C17.9274 20.0487 18.2443 20.0487 18.4393 19.8537L19.8537 18.4393C20.0488 18.2443 20.0488 17.9274 19.8537 17.7324L12.1216 10.0003Z" fill="#00812A"/>
</svg>
