<svg width="27" height="25" viewBox="0 0 27 25" fill="none" xmlns="http://www.w3.org/2000/svg">
    <path d="M0.5 5.76931C0.5 2.58301 3.19679 0 6.52344 0C9.85015 0 12.5469 2.58301 12.5469 5.76931V11.5386H6.52344C3.19679 11.5386 0.5 8.95561 0.5 5.76931Z" fill="white"/>
    <path d="M0.5 18.6921C0.5 21.8785 3.19679 24.4614 6.52344 24.4614C9.85015 24.4614 12.5469 21.8785 12.5469 18.6921V12.9229H6.52344C3.19679 12.9229 0.5 15.5058 0.5 18.6921Z" fill="white"/>
    <path d="M26.0391 5.76931C26.0391 2.58301 23.3423 0 20.0157 0C16.689 0 13.9922 2.58301 13.9922 5.76931V11.5386H20.0157C23.3423 11.5386 26.0391 8.95561 26.0391 5.76931Z" fill="white"/>
    <path d="M26.0391 18.6921C26.0391 21.8785 23.3423 24.4614 20.0157 24.4614C16.689 24.4614 13.9922 21.8785 13.9922 18.6921V12.9229H20.0157C23.3423 12.9229 26.0391 15.5058 26.0391 18.6921Z" fill="white"/>
</svg>
