<svg width="420" height="231" viewBox="0 0 420 231" fill="none" xmlns="http://www.w3.org/2000/svg">
    <path d="M20.7136 179.528C19.7922 178.721 19.0961 178.69 18.3386 178.067C18.2703 177.045 18.0383 175.3 17.9359 174.278C18.8027 173.409 19.2463 173.194 19.997 172.464C19.997 172.325 19.9219 172.187 19.8468 172.056C19.6626 171.733 19.4783 171.411 19.2804 171.088C18.5638 169.919 17.738 168.836 16.8167 167.875C15.9636 168.759 15.2606 169.612 14.5577 170.473C13.5203 170.019 12.4215 169.735 11.3091 169.62C11.1863 168.444 11.002 167.283 10.7495 166.138C9.27535 166.384 7.78074 166.837 6.42944 167.621C6.66148 168.728 6.90717 169.404 7.24159 170.365C6.36802 171.272 5.52176 172.11 4.82564 173.071C3.8224 172.441 2.98979 172.141 2.04798 171.541C1.03792 173.225 0.348622 175.116 0.341797 177.076C1.41328 177.229 2.04798 177.183 3.03074 177.26C3.16723 178.528 3.52212 179.804 3.97937 181.003C3.18088 181.849 2.73727 182.595 2.03433 183.233C2.59396 184.724 3.51529 186.007 4.65502 186.96C5.35796 186.123 5.80157 185.608 6.43627 184.877C7.37125 185.293 8.56558 185.854 9.56882 185.992C9.87593 187.099 9.93052 187.714 10.0329 188.759C11.5821 189.044 13.1654 188.921 14.6942 188.513C14.5577 187.306 14.6669 186.607 14.4348 185.569C15.3289 184.862 16.2161 183.863 16.803 182.956C17.8199 183.156 18.2294 183.394 19.1029 183.701C19.9424 182.395 20.4406 180.988 20.7068 179.528H20.7136ZM11.9097 181.05C11.2272 181.326 10.5447 181.565 8.77715 180.281C8.08103 179.781 6.57959 177.66 8.43591 175.023C9.02966 174.185 10.0192 173.686 10.9611 173.847C11.896 174.009 12.6126 174.27 13.1723 174.816C14.039 175.654 14.4075 177.068 14.1414 178.321C13.8684 179.574 12.9948 180.619 11.9165 181.05H11.9097Z" fill="#00812A"/>
    <path d="M11.7726 189.305C11.1652 189.305 10.5647 189.251 9.97774 189.144C9.82759 189.113 9.70474 188.974 9.69109 188.805L9.67745 188.652C9.59555 187.775 9.54095 187.222 9.30891 186.346C8.41487 186.177 7.42529 185.738 6.61315 185.377L6.52443 185.339C6.01257 185.923 5.57579 186.43 4.90697 187.23C4.78413 187.376 4.58621 187.391 4.44972 187.276C3.24174 186.253 2.29311 184.908 1.71983 183.386C1.65841 183.225 1.69935 183.041 1.8222 182.933C2.18391 182.602 2.4842 182.226 2.79813 181.826C3.037 181.534 3.27587 181.226 3.56933 180.904C3.15302 179.774 2.87321 178.675 2.72989 177.622C2.47737 177.606 2.23851 177.598 2.00647 177.591C1.48097 177.575 0.982761 177.552 0.300289 177.452C0.129671 177.429 0 177.26 0 177.068C0.00682472 175.2 0.600578 173.263 1.7676 171.319C1.86997 171.149 2.06789 171.096 2.22486 171.196C2.68894 171.488 3.11889 171.711 3.57615 171.941C3.95151 172.133 4.33369 172.325 4.75 172.571C5.3301 171.81 5.98528 171.134 6.6814 170.419L6.83837 170.258C6.54491 169.428 6.31286 168.744 6.09447 167.714C6.06035 167.537 6.1286 167.36 6.27192 167.275C7.53449 166.545 9.02227 166.038 10.6943 165.754C10.8718 165.723 11.0356 165.853 11.0833 166.046C11.3154 167.099 11.4928 168.182 11.6157 169.266C12.5848 169.389 13.5402 169.643 14.4547 170.02C15.1031 169.228 15.7787 168.413 16.5772 167.591C16.7069 167.452 16.9116 167.452 17.0481 167.591C17.99 168.574 18.8294 169.674 19.5596 170.873C19.7507 171.188 19.935 171.511 20.1193 171.834C20.2285 172.018 20.3445 172.226 20.3377 172.479C20.3377 172.587 20.2899 172.694 20.2216 172.764C19.8599 173.117 19.5665 173.355 19.273 173.586C18.9795 173.824 18.6792 174.063 18.2902 174.439C18.3244 174.762 18.3653 175.139 18.4131 175.531C18.5018 176.315 18.6042 177.199 18.6588 177.86C18.9318 178.06 19.2047 178.19 19.4914 178.336C19.9077 178.536 20.3786 178.767 20.9109 179.236C21.0133 179.328 21.0679 179.474 21.0406 179.62C20.7335 181.257 20.1875 182.672 19.3754 183.94C19.2866 184.078 19.1365 184.132 18.9932 184.086C18.7407 183.994 18.5291 183.917 18.3312 183.84C17.8808 183.663 17.519 183.525 16.9458 183.402C16.3725 184.247 15.6013 185.1 14.8165 185.754C14.9188 186.3 14.9325 186.761 14.953 187.253C14.9666 187.629 14.9803 188.014 15.0348 188.49C15.0553 188.69 14.9461 188.875 14.7687 188.921C13.745 189.19 12.7417 189.328 11.7658 189.328L11.7726 189.305ZM10.3463 188.421C11.6157 188.613 12.9465 188.544 14.3183 188.214C14.291 187.86 14.2773 187.552 14.2637 187.268C14.2432 186.722 14.2227 186.253 14.093 185.669C14.0589 185.516 14.1135 185.346 14.2295 185.254C15.0621 184.593 15.9357 183.625 16.5158 182.733C16.5909 182.61 16.7274 182.549 16.857 182.579C17.6146 182.725 18.0514 182.894 18.5564 183.094C18.6861 183.14 18.8157 183.194 18.9659 183.248C19.6074 182.195 20.051 181.027 20.324 179.697C19.9282 179.382 19.5733 179.213 19.2252 179.044C18.8703 178.874 18.5086 178.698 18.1333 178.39C18.0514 178.321 17.9968 178.221 17.99 178.106C17.949 177.46 17.833 176.492 17.7374 175.638C17.6828 175.154 17.6282 174.701 17.5941 174.332C17.5805 174.209 17.6214 174.078 17.7101 174.001C18.1879 173.517 18.5428 173.233 18.884 172.963C19.1229 172.771 19.3412 172.595 19.6006 172.356C19.5869 172.333 19.5733 172.302 19.5596 172.287C19.3685 171.949 19.1911 171.634 19 171.326C18.3585 170.281 17.6282 169.305 16.8229 168.428C16.079 169.212 15.4443 169.996 14.8233 170.757C14.7277 170.873 14.5776 170.911 14.4479 170.857C13.4379 170.419 12.3732 170.135 11.2949 170.027C11.1311 170.012 11.0014 169.866 10.981 169.681C10.8718 168.644 10.7148 167.614 10.5032 166.599C9.13829 166.86 7.90984 167.275 6.84519 167.852C7.04311 168.713 7.25467 169.312 7.53449 170.112L7.58226 170.242C7.63686 170.388 7.60274 170.565 7.49354 170.673L7.15913 171.019C6.40841 171.795 5.70546 172.525 5.11171 173.34C5.00934 173.486 4.82507 173.525 4.67493 173.432C4.19037 173.133 3.73995 172.902 3.30317 172.679C2.94146 172.495 2.56609 172.302 2.17709 172.08C1.27622 173.671 0.784843 175.239 0.709771 176.753C1.20798 176.814 1.61063 176.83 2.04059 176.845C2.36135 176.853 2.68894 176.868 3.07112 176.899C3.23492 176.914 3.37141 177.053 3.39188 177.237C3.52155 178.382 3.82867 179.612 4.31322 180.873C4.36782 181.027 4.34052 181.196 4.23132 181.311C3.87644 181.68 3.59663 182.034 3.32364 182.372C3.04383 182.718 2.77766 183.048 2.47055 183.363C2.96193 184.555 3.70582 185.615 4.63398 186.461C5.25503 185.723 5.67817 185.239 6.20367 184.632C6.29922 184.524 6.44935 184.486 6.5722 184.539L6.87249 184.67C7.71875 185.047 8.76976 185.508 9.62285 185.623C9.75934 185.639 9.86854 185.746 9.90949 185.892C10.1961 186.922 10.2712 187.553 10.3531 188.436L10.3463 188.421ZM10.9878 181.665C10.4009 181.665 9.67745 181.411 8.58549 180.619C8.17601 180.319 7.42529 179.474 7.2342 178.183C7.06358 177.045 7.37752 175.907 8.15553 174.793C8.84483 173.809 9.96409 173.294 11.0014 173.478C12.107 173.671 12.8236 173.986 13.3833 174.532C14.3319 175.454 14.7619 177.014 14.4616 178.421C14.1681 179.789 13.2331 180.934 12.0183 181.426C11.6839 181.557 11.3632 181.665 10.981 181.665H10.9878ZM10.5988 174.216C9.89584 174.216 9.16559 174.616 8.70151 175.277C8.04634 176.207 7.78017 177.145 7.91667 178.06C8.05999 179.013 8.61961 179.728 8.96085 179.974C10.6193 181.173 11.1925 180.942 11.7931 180.696C12.7759 180.304 13.5607 179.336 13.7996 178.236C14.0453 177.107 13.6972 175.854 12.9465 175.116C12.4892 174.67 11.8818 174.409 10.9059 174.239C10.8035 174.224 10.7012 174.216 10.5988 174.216Z" fill="black"/>
    <path d="M362.167 51.6242C361.232 51.6089 360.352 52.4544 360.141 53.5535C359.929 54.6527 360.373 55.8903 361.164 56.5052C361.963 57.1201 363.048 57.097 363.826 56.4898C364.474 55.9825 364.904 55.0832 364.89 54.1454C364.877 53.2077 364.399 52.2776 363.676 51.9009C363.266 51.6857 362.788 51.6473 362.161 51.6319L362.167 51.6242Z" fill="white"/>
    <path d="M362.481 57.3355C361.949 57.3355 361.417 57.1664 360.966 56.8205C360.052 56.1134 359.56 54.699 359.799 53.4692C360.052 52.1856 361.048 51.2324 362.133 51.2324C362.147 51.2324 362.161 51.2324 362.167 51.2324C362.754 51.2478 363.321 51.2785 363.819 51.5399C364.652 51.978 365.218 53.0157 365.232 54.1379C365.245 55.191 364.781 56.2133 364.017 56.8128C363.56 57.1664 363.021 57.3509 362.475 57.3509L362.481 57.3355ZM362.14 52.0088C361.383 52.0088 360.659 52.7159 360.482 53.6306C360.304 54.553 360.68 55.6445 361.369 56.1749C362.038 56.6899 362.966 56.6822 363.635 56.1595C364.201 55.7137 364.563 54.922 364.549 54.1379C364.536 53.3232 364.126 52.5468 363.539 52.2394C363.198 52.0626 362.775 52.0164 362.167 52.0088C362.167 52.0088 362.154 52.0088 362.147 52.0088H362.14Z" fill="black"/>
    <path d="M311.909 67.2489C311.909 67.2489 311.896 67.2489 311.889 67.2489C311.739 67.2412 311.609 67.1182 311.575 66.9491C311.165 64.9813 308.92 62.1681 305.078 58.8245C303.385 57.3563 301.577 55.9497 299.973 54.7122C299.126 54.0588 298.335 53.4439 297.673 52.9058C297.516 52.7828 297.482 52.5369 297.598 52.3601C297.707 52.1833 297.925 52.1449 298.082 52.2755C298.737 52.8059 299.529 53.4208 300.375 54.0742C301.986 55.3194 303.808 56.7337 305.514 58.2172C308.947 61.2073 311.097 63.7361 311.943 65.7654C313.069 62.8214 314.352 61.8376 316.516 60.1696C317.232 59.6162 318.045 58.9935 318.993 58.1942C319.28 57.9559 319.587 57.7022 319.908 57.4486C324.494 53.759 332.158 47.5944 333.079 16.587C326.924 14.8344 318.42 11.6215 312.114 6.1333C305.262 11.6368 295.373 15.0958 291.128 16.4102C291.148 16.7407 291.176 17.1635 291.203 17.6323C291.299 19.2542 291.428 21.4756 291.531 22.029C291.572 22.2366 291.449 22.4441 291.264 22.4902C291.08 22.5364 290.896 22.398 290.855 22.1905C290.746 21.5909 290.616 19.4233 290.514 17.6862C290.48 17.0559 290.445 16.5024 290.418 16.1565C290.404 15.9721 290.514 15.803 290.671 15.7491C294.752 14.5039 305.003 10.9912 311.916 5.34158C312.039 5.24166 312.209 5.24167 312.332 5.34928C318.652 10.9451 327.34 14.1888 333.516 15.9183C333.673 15.9644 333.782 16.1258 333.776 16.3103C333.387 30.1921 331.639 40.4459 328.445 47.6405C325.757 53.7052 322.603 56.2418 320.304 58.0942C319.983 58.3479 319.683 58.5938 319.403 58.8321C318.44 59.6392 317.621 60.2695 316.898 60.8306C314.482 62.6908 313.376 63.5363 312.244 67.0183C312.196 67.172 312.066 67.2719 311.916 67.2719L311.909 67.2489Z" fill="black"/>
    <path d="M312.004 60.1466C311.963 60.1466 311.929 60.1235 311.909 60.0851C311.322 58.9859 307.466 55.0504 304.558 52.952C304.504 52.9136 304.49 52.8367 304.524 52.7752C304.558 52.7137 304.627 52.6984 304.681 52.7368C307.486 54.7584 311.178 58.5017 312.011 59.793C312.707 58.8091 314.604 57.0105 317.662 54.4432C326.5 47.0026 328.67 36.303 329.564 19.1697C321.866 16.9945 316.181 14.2042 312.188 10.6454C308.114 14.0736 301.03 16.418 296.785 17.8169C295.898 18.109 295.12 18.3703 294.547 18.5779L294.56 18.7162C294.622 19.285 294.703 20.0691 294.703 20.292C294.703 20.3612 294.649 20.4226 294.587 20.4226C294.526 20.4226 294.471 20.3612 294.471 20.292C294.471 20.0921 294.39 19.285 294.335 18.747L294.308 18.501C294.308 18.4395 294.335 18.3857 294.39 18.3627C294.976 18.1474 295.789 17.8784 296.724 17.5633C300.975 16.1566 308.094 13.7969 312.12 10.3687C312.161 10.3302 312.222 10.3302 312.263 10.3687C316.249 13.9506 321.955 16.7562 329.714 18.9315C329.769 18.9468 329.803 19.0006 329.803 19.0621C328.909 36.3337 326.732 47.1179 317.798 54.6354C314.604 57.3256 312.687 59.155 312.1 60.0774C312.079 60.1082 312.045 60.1312 312.004 60.1312V60.1466Z" fill="black"/>
    <path d="M305.309 34.1893C303.166 32.9595 300.211 34.1432 299.221 36.6337C299.003 37.1871 298.866 37.7866 298.566 38.2863C298.102 39.0549 297.324 39.4777 296.648 40.0157C295.672 40.7998 294.894 41.8836 294.41 43.1211C293.966 44.2664 293.789 45.6269 294.266 46.7491C294.983 48.4479 297.058 49.0013 298.566 48.2173C299.453 47.7561 300.184 46.9336 301.119 46.6185C302.524 46.1419 303.992 46.9259 305.323 47.61C306.653 48.2941 308.237 48.9014 309.54 48.1327C310.619 47.4947 311.171 46.0112 311.055 44.643C310.939 43.2748 310.236 42.0373 309.342 41.1226C308.946 40.7152 308.503 40.354 308.175 39.8697C307.657 39.1164 307.472 38.1479 307.158 37.2563C306.728 36.0418 306.196 34.6967 305.323 34.197L305.309 34.1893Z" fill="#00812A"/>
    <path d="M297.113 48.9547C295.782 48.9547 294.499 48.1937 293.953 46.9101C293.318 45.4189 293.769 43.7894 294.096 42.9592C294.608 41.6525 295.42 40.5226 296.451 39.6924C296.628 39.5541 296.806 39.4157 296.99 39.2851C297.495 38.9161 297.973 38.5702 298.28 38.0552C298.457 37.7631 298.573 37.4172 298.696 37.056C298.764 36.8638 298.826 36.6639 298.908 36.4718C299.426 35.1804 300.457 34.1505 301.747 33.6355C303.016 33.1358 304.374 33.205 305.473 33.8353C306.463 34.4041 307.022 35.8184 307.479 37.1021C307.568 37.3557 307.65 37.6171 307.725 37.8631C307.923 38.5087 308.107 39.1236 308.449 39.6156C308.66 39.9307 308.94 40.1921 309.227 40.4688C309.343 40.5841 309.465 40.6994 309.581 40.8147C310.646 41.9062 311.294 43.2436 311.41 44.5888C311.547 46.1952 310.851 47.7864 309.711 48.4628C308.257 49.3237 306.531 48.6396 305.193 47.9555L305.118 47.917C303.828 47.2483 302.491 46.5642 301.235 46.987C300.743 47.1561 300.3 47.4789 299.836 47.8248C299.488 48.0861 299.126 48.3552 298.73 48.5627C298.218 48.824 297.672 48.9547 297.133 48.9547H297.113ZM303.439 34.0813C302.955 34.0813 302.456 34.1735 301.972 34.3657C300.866 34.8038 299.979 35.6878 299.535 36.7869C299.467 36.9637 299.406 37.1405 299.338 37.3327C299.208 37.7247 299.071 38.1244 298.846 38.4933C298.464 39.1313 297.898 39.5387 297.358 39.9384C297.188 40.0614 297.01 40.1921 296.847 40.3227C295.918 41.0683 295.188 42.083 294.724 43.2667C294.253 44.4812 294.199 45.6879 294.574 46.5719C295.229 48.1092 297.14 48.5166 298.416 47.8555C298.764 47.6787 299.092 47.4328 299.433 47.1791C299.918 46.8179 300.423 46.4412 301.016 46.2414C302.518 45.734 304.04 46.5181 305.384 47.2099L305.459 47.2483C306.654 47.8632 308.182 48.4781 309.37 47.7787C310.264 47.2483 310.817 45.9646 310.701 44.6656C310.598 43.5126 310.032 42.352 309.097 41.3912C308.988 41.2759 308.872 41.1683 308.763 41.0606C308.455 40.7686 308.148 40.4688 307.889 40.0845C307.479 39.4849 307.268 38.7854 307.063 38.109C306.988 37.863 306.913 37.6171 306.831 37.3788C306.428 36.2258 305.93 34.9652 305.159 34.5194C304.64 34.2196 304.053 34.0736 303.446 34.0736L303.439 34.0813Z" fill="black"/>
    <path d="M291.415 30.5838C290.391 31.9059 290.084 33.8813 290.65 35.5109C291.053 36.6792 292.029 37.7092 293.128 37.5863C294.117 37.471 294.895 36.4256 295.059 35.3034C295.223 34.1811 294.888 33.0435 294.397 32.0673C293.865 30.9989 292.425 29.2848 291.421 30.5838H291.415Z" fill="#00812A"/>
    <path d="M292.943 37.9863C291.701 37.9863 290.732 36.8103 290.329 35.6496C289.722 33.8894 290.056 31.7525 291.155 30.3229C291.496 29.8847 291.926 29.6772 292.397 29.731C293.428 29.8463 294.349 31.1838 294.697 31.8679C295.325 33.1131 295.557 34.2891 295.4 35.3652C295.223 36.5566 294.397 37.8326 293.162 37.971C293.086 37.9786 293.011 37.9863 292.943 37.9863ZM292.254 30.5073C292.042 30.5073 291.858 30.615 291.681 30.8379C290.739 32.0523 290.459 33.8664 290.978 35.3652C291.319 36.3568 292.158 37.2945 293.1 37.1946C293.871 37.1101 294.574 36.2645 294.724 35.2345C294.854 34.3429 294.649 33.336 294.103 32.2522C293.708 31.4605 292.95 30.5765 292.336 30.5073C292.309 30.5073 292.281 30.5073 292.261 30.5073H292.254Z" fill="black"/>
    <path d="M312.783 29.2843C311.336 29.9069 310.244 31.4903 310.066 33.2275C309.937 34.4727 310.367 35.9101 311.39 36.3867C312.312 36.8171 313.424 36.3021 314.038 35.4028C314.646 34.5035 314.823 33.3121 314.796 32.1821C314.769 30.9523 314.216 28.6694 312.789 29.2766L312.783 29.2843Z" fill="#00812A"/>
    <path d="M312.094 36.9407C311.814 36.9407 311.527 36.8792 311.248 36.7485C310.005 36.1644 309.582 34.4887 309.719 33.182C309.91 31.2988 311.097 29.5847 312.66 28.916C313.145 28.7084 313.602 28.7546 313.991 29.0466C314.851 29.7 315.117 31.3757 315.138 32.1674C315.172 33.6047 314.892 34.7654 314.305 35.634C313.814 36.3642 312.974 36.933 312.094 36.933V36.9407ZM312.906 29.6462C311.575 30.215 310.572 31.6754 310.408 33.2742C310.299 34.335 310.647 35.6186 311.521 36.0337C312.34 36.418 313.281 35.8723 313.759 35.1728C314.244 34.4503 314.476 33.451 314.448 32.1981C314.428 31.2757 314.128 30.092 313.609 29.7C313.404 29.5463 313.186 29.5309 312.906 29.6462Z" fill="black"/>
    <path d="M297.939 22.5516C296.915 23.8737 296.608 25.8491 297.175 27.4787C297.577 28.647 298.553 29.677 299.652 29.554C300.642 29.4387 301.42 28.3934 301.583 27.2711C301.747 26.1566 301.413 25.0113 300.921 24.0351C300.389 22.9667 298.949 21.2526 297.946 22.5516H297.939Z" fill="#00812A"/>
    <path d="M299.469 29.9531C298.226 29.9531 297.257 28.7771 296.855 27.6164C296.247 25.8562 296.582 23.7194 297.68 22.2897C298.022 21.8515 298.452 21.644 298.923 21.6978C299.953 21.8131 300.874 23.1506 301.223 23.8347C301.85 25.0799 302.082 26.2559 301.925 27.332C301.748 28.5234 300.922 29.7994 299.687 29.9378C299.612 29.9454 299.537 29.9531 299.469 29.9531ZM298.779 22.4741C298.568 22.4741 298.383 22.5817 298.206 22.8047C297.264 24.0191 296.984 25.8331 297.503 27.332C297.844 28.3236 298.684 29.2613 299.626 29.1614C300.397 29.0769 301.1 28.2313 301.25 27.2014C301.38 26.3097 301.175 25.3028 300.629 24.219C300.233 23.4273 299.475 22.5433 298.861 22.4741C298.834 22.4741 298.807 22.4741 298.786 22.4741H298.779Z" fill="black"/>
    <path d="M308.464 22.4595C309.494 23.7585 309.815 25.734 309.262 27.3712C308.866 28.5472 307.897 29.5926 306.798 29.4927C305.802 29.4004 305.024 28.3627 304.853 27.2482C304.683 26.1337 305.01 24.9884 305.495 23.9968C306.02 22.9207 307.447 21.1759 308.464 22.4595Z" fill="#00812A"/>
    <path d="M306.948 29.8922C306.887 29.8922 306.825 29.8922 306.764 29.8845C305.522 29.7692 304.689 28.5009 304.512 27.3172C304.348 26.2488 304.573 25.0651 305.194 23.8122C305.535 23.1127 306.457 21.7675 307.487 21.6369C307.951 21.5754 308.381 21.7752 308.722 22.2057C309.835 23.6123 310.183 25.7492 309.582 27.5171C309.187 28.6931 308.204 29.8922 306.955 29.8922H306.948ZM307.637 22.3978C307.637 22.3978 307.583 22.3978 307.555 22.3978C306.941 22.4747 306.184 23.374 305.788 24.1811C305.249 25.2803 305.044 26.2872 305.18 27.1789C305.317 28.0474 305.931 29.0236 306.812 29.1082C307.747 29.2004 308.586 28.2319 308.927 27.2404C309.432 25.7338 309.139 23.9198 308.197 22.7284C308.026 22.5131 307.842 22.4055 307.637 22.4055V22.3978Z" fill="black"/>
    <path d="M296.254 47.0183C296.254 47.0183 296.192 47.003 296.172 46.9799C295.605 46.3419 295.359 45.3504 295.544 44.4664C295.557 44.3972 295.619 44.3511 295.68 44.3742C295.742 44.3895 295.783 44.4587 295.762 44.5279C295.592 45.3273 295.81 46.2189 296.329 46.7954C296.376 46.8492 296.376 46.9261 296.329 46.9799C296.308 47.003 296.274 47.0183 296.247 47.0183H296.254Z" fill="black"/>
    <path d="M327.942 66.5139L327.921 188.192C327.921 190.567 325.826 193.103 323.246 193.103H88.7969C85.2412 193.103 83.4531 189.306 83.4531 186.931L83.808 65.8221C83.808 63.447 85.9032 60.603 88.4829 60.603L322.427 60.4492C325.007 60.4492 327.942 62.9781 327.942 66.5216V66.5139Z" fill="white"/>
    <path d="M323.247 193.487H88.7973C85.1324 193.487 83.1055 189.605 83.1055 186.93L83.4603 65.8137C83.4603 63.2695 85.6989 60.2026 88.4833 60.2026L322.428 60.0488C325.199 60.0488 328.283 62.7007 328.283 66.5132L328.263 188.191C328.263 190.689 326.113 193.487 323.24 193.487H323.247ZM322.435 60.8252L88.4902 60.9789C86.0947 60.9789 84.1633 63.6231 84.1633 65.8137L83.8084 186.93C83.8084 188.883 85.3167 192.711 88.8041 192.711H323.247C325.683 192.711 327.574 190.282 327.574 188.191L327.594 66.5132C327.594 63.2618 324.864 60.8329 322.428 60.8329L322.435 60.8252Z" fill="black"/>
    <path d="M84.2182 72.2778C84.0271 72.2778 83.8701 72.101 83.8701 71.8857C83.8701 71.6705 84.0271 71.4937 84.2182 71.4937L327.649 71.1709C327.84 71.1709 327.997 71.3477 327.997 71.5629C327.997 71.7781 327.84 71.9549 327.649 71.9549L84.2182 72.2778Z" fill="black"/>
    <path d="M319.205 65.5518C318.85 65.4749 318.475 65.6901 318.304 66.0129C318.154 66.282 318.134 66.6356 318.263 66.9123C318.393 67.189 318.68 67.3965 318.987 67.4042C319.43 67.4196 319.833 66.9891 319.84 66.5356C319.847 66.0744 319.512 65.6132 319.205 65.5518Z" fill="black"/>
    <path d="M311.33 65.5518C310.975 65.4749 310.6 65.6901 310.423 66.0129C310.272 66.282 310.252 66.6356 310.382 66.9123C310.511 67.189 310.798 67.3965 311.105 67.4042C311.549 67.4196 311.951 66.9891 311.958 66.5356C311.965 66.0744 311.631 65.6132 311.323 65.5518H311.33Z" fill="black"/>
    <path d="M302.949 65.5518C302.595 65.4749 302.219 65.6901 302.049 66.0129C301.898 66.282 301.878 66.6356 302.008 66.9123C302.137 67.189 302.424 67.3965 302.731 67.4042C303.175 67.4196 303.577 66.9891 303.584 66.5356C303.591 66.0744 303.257 65.6132 302.949 65.5518Z" fill="black"/>
    <path d="M220.78 165.938L199.944 165.784C199.883 165.784 199.828 165.722 199.828 165.653C199.828 165.584 199.883 165.522 199.944 165.522L220.78 165.676C220.841 165.676 220.896 165.738 220.896 165.807C220.896 165.876 220.841 165.938 220.78 165.938Z" fill="black"/>
    <path d="M218.747 170.61L201.985 170.457C201.924 170.457 201.869 170.395 201.869 170.326C201.869 170.257 201.924 170.195 201.985 170.195L218.747 170.349C218.808 170.349 218.863 170.411 218.863 170.48C218.863 170.549 218.808 170.61 218.747 170.61Z" fill="black"/>
    <path d="M220.78 175.284L199.944 175.13C199.883 175.13 199.828 175.069 199.828 175C199.828 174.931 199.883 174.869 199.944 174.869L220.78 175.023C220.841 175.023 220.896 175.084 220.896 175.154C220.896 175.223 220.841 175.284 220.78 175.284Z" fill="black"/>
    <path d="M146.936 165.938L126.1 165.784C126.039 165.784 125.984 165.722 125.984 165.653C125.984 165.584 126.039 165.522 126.1 165.522L146.936 165.676C146.998 165.676 147.052 165.738 147.052 165.807C147.052 165.876 146.998 165.938 146.936 165.938Z" fill="black"/>
    <path d="M144.903 170.61L128.141 170.457C128.08 170.457 128.025 170.395 128.025 170.326C128.025 170.257 128.087 170.203 128.141 170.195L144.903 170.349C144.964 170.349 145.019 170.411 145.019 170.48C145.019 170.549 144.964 170.61 144.903 170.61Z" fill="black"/>
    <path d="M146.936 175.284L126.1 175.13C126.039 175.13 125.984 175.069 125.984 175C125.984 174.931 126.039 174.869 126.1 174.869L146.936 175.023C146.998 175.023 147.052 175.084 147.052 175.154C147.052 175.223 146.998 175.284 146.936 175.284Z" fill="black"/>
    <path d="M294.624 165.938L273.788 165.784C273.726 165.784 273.672 165.722 273.672 165.653C273.672 165.584 273.726 165.522 273.788 165.522L294.624 165.676C294.685 165.676 294.74 165.738 294.74 165.807C294.74 165.876 294.685 165.938 294.624 165.938Z" fill="black"/>
    <path d="M292.584 170.611L275.822 170.458C275.761 170.458 275.706 170.396 275.706 170.327C275.706 170.258 275.761 170.196 275.822 170.196L292.584 170.35C292.645 170.35 292.7 170.412 292.7 170.481C292.7 170.55 292.645 170.611 292.584 170.611Z" fill="black"/>
    <path d="M294.624 175.284L273.788 175.13C273.726 175.13 273.672 175.069 273.672 175C273.672 174.931 273.726 174.869 273.788 174.869L294.624 175.023C294.685 175.023 294.74 175.084 294.74 175.154C294.74 175.223 294.685 175.284 294.624 175.284Z" fill="black"/>
    <path d="M209.54 152.048C209.54 152.048 209.526 152.048 209.52 152.048C209.369 152.041 209.24 151.918 209.206 151.749C208.796 149.781 206.551 146.968 202.708 143.624C201.023 142.156 199.207 140.749 197.604 139.512C196.757 138.858 195.959 138.236 195.297 137.698C195.14 137.575 195.106 137.329 195.222 137.152C195.331 136.975 195.549 136.937 195.706 137.067C196.361 137.598 197.16 138.22 197.999 138.866C199.61 140.111 201.432 141.518 203.132 143.001C206.564 145.991 208.714 148.52 209.56 150.55C210.687 147.606 211.97 146.622 214.133 144.954C214.85 144.4 215.662 143.778 216.61 142.978C216.897 142.74 217.204 142.486 217.525 142.233C222.111 138.543 229.775 132.379 230.697 101.371C224.541 99.6186 216.037 96.4057 209.731 90.9175C202.879 96.421 192.99 99.88 188.745 101.194C188.766 101.533 188.793 101.955 188.82 102.424C188.916 104.046 189.045 106.26 189.148 106.813C189.189 107.021 189.066 107.228 188.882 107.274C188.697 107.321 188.513 107.182 188.472 106.975C188.363 106.375 188.233 104.215 188.131 102.486C188.097 101.855 188.063 101.294 188.035 100.941C188.022 100.756 188.131 100.587 188.288 100.533C192.369 99.2881 202.62 95.7754 209.533 90.1258C209.656 90.0258 209.827 90.0258 209.949 90.1335C216.269 95.7292 224.957 98.973 231.133 100.702C231.29 100.749 231.4 100.91 231.393 101.094C231.004 114.976 229.257 125.222 226.063 132.425C223.374 138.489 220.221 141.026 217.921 142.878C217.6 143.132 217.3 143.378 217.013 143.616C216.051 144.423 215.232 145.054 214.508 145.615C212.092 147.475 210.987 148.32 209.854 151.802C209.806 151.956 209.676 152.056 209.526 152.056L209.54 152.048Z" fill="black"/>
    <path d="M209.635 144.953C209.594 144.953 209.56 144.93 209.539 144.892C208.953 143.793 205.097 139.857 202.189 137.759C202.135 137.72 202.121 137.643 202.155 137.582C202.189 137.52 202.257 137.505 202.312 137.543C205.117 139.565 208.809 143.308 209.642 144.6C210.338 143.616 212.235 141.817 215.293 139.25C224.131 131.809 226.301 121.11 227.195 103.976C219.497 101.801 213.812 99.0109 209.819 95.452C205.745 98.8802 198.661 101.225 194.416 102.624C193.529 102.916 192.751 103.177 192.177 103.385L192.191 103.523C192.252 104.092 192.334 104.876 192.334 105.099C192.334 105.168 192.28 105.229 192.218 105.229C192.157 105.229 192.102 105.168 192.102 105.099C192.102 104.891 192.02 104.084 191.966 103.554L191.938 103.308C191.938 103.246 191.966 103.192 192.014 103.169C192.6 102.954 193.406 102.685 194.348 102.37C198.599 100.963 205.724 98.6035 209.751 95.1753C209.792 95.1369 209.853 95.1369 209.894 95.1753C213.88 98.7572 219.585 101.563 227.345 103.738C227.4 103.753 227.434 103.807 227.434 103.869C226.54 121.14 224.363 131.925 215.429 139.442C212.235 142.132 210.317 143.962 209.731 144.884C209.71 144.915 209.676 144.938 209.635 144.938V144.953Z" fill="black"/>
    <path d="M206.81 108.949C204.435 108.949 202.92 110.348 202.627 112.362C202.354 114.191 203.241 116.205 204.92 117.043C207.643 118.404 210.741 116.313 210.741 113.346C210.741 110.379 208.817 108.949 206.817 108.949H206.81Z" fill="white"/>
    <path d="M206.695 117.858C206.046 117.858 205.398 117.705 204.777 117.397C203.023 116.521 201.979 114.376 202.286 112.293C202.627 109.987 204.36 108.558 206.811 108.558C208.94 108.558 211.083 110.041 211.083 113.346C211.083 114.814 210.407 116.144 209.233 117.013C208.462 117.574 207.582 117.866 206.695 117.866V117.858ZM206.811 109.334C204.688 109.334 203.248 110.487 202.968 112.424C202.709 114.161 203.589 115.952 205.063 116.69C206.312 117.313 207.732 117.19 208.858 116.359C209.834 115.645 210.394 114.545 210.394 113.346C210.394 110.387 208.462 109.342 206.811 109.342V109.334Z" fill="black"/>
    <path d="M200.108 133.584C200.306 130.825 200.108 127.989 200.566 125.298C201.132 122.008 202.77 119.088 204.94 117.958C207.111 116.828 209.738 117.666 211.253 120.217C212.509 122.339 212.898 125.283 213.062 128.096C213.164 129.918 213.191 131.755 213.212 133.584H200.115H200.108Z" fill="black"/>
    <path d="M185.94 110.887C183.681 110.887 182.248 112.17 181.962 114.023C181.702 115.706 182.542 117.559 184.139 118.335C186.725 119.588 189.667 117.666 189.667 114.93C189.667 112.193 187.838 110.887 185.933 110.887H185.94Z" fill="white"/>
    <path d="M185.831 119.12C185.217 119.12 184.596 118.981 184.009 118.697C182.337 117.89 181.333 115.899 181.627 113.962C181.955 111.825 183.606 110.503 185.947 110.503C187.974 110.503 190.021 111.871 190.021 114.938C190.021 116.26 189.4 117.482 188.322 118.282C187.571 118.835 186.705 119.12 185.831 119.12ZM185.94 111.279C183.961 111.279 182.569 112.355 182.303 114.093C182.064 115.676 182.89 117.305 184.275 117.974C185.469 118.551 186.868 118.42 187.94 117.628C188.82 116.975 189.325 115.991 189.325 114.93C189.325 112.232 187.503 111.272 185.94 111.272V111.279Z" fill="black"/>
    <path d="M179.572 133.148C179.763 130.681 179.572 128.144 180.009 125.738C180.548 122.794 182.104 120.181 184.165 119.166C186.226 118.152 188.724 118.905 190.164 121.188C191.359 123.086 191.727 125.723 191.877 128.236C191.973 129.873 192 131.511 192.021 133.148H179.572Z" fill="white"/>
    <path d="M192.021 133.541H179.573C179.477 133.541 179.382 133.495 179.32 133.418C179.252 133.341 179.225 133.233 179.231 133.118C179.3 132.203 179.32 131.258 179.334 130.335C179.361 128.79 179.388 127.192 179.668 125.654C180.248 122.464 181.92 119.843 184.022 118.806C186.295 117.683 188.936 118.567 190.438 120.958C191.755 123.056 192.082 125.931 192.219 128.206C192.314 129.851 192.342 131.519 192.362 133.141C192.362 133.249 192.328 133.349 192.26 133.418C192.192 133.495 192.103 133.533 192.014 133.533L192.021 133.541ZM179.948 132.764H191.673C191.652 131.281 191.625 129.759 191.536 128.268C191.407 126.1 191.1 123.356 189.885 121.419C188.575 119.336 186.281 118.56 184.309 119.528C182.432 120.451 180.883 122.926 180.351 125.823C180.085 127.292 180.057 128.852 180.03 130.358C180.016 131.15 180.003 131.957 179.955 132.764H179.948Z" fill="black"/>
    <path d="M196.771 116.805C194.921 116.805 193.747 117.896 193.515 119.48C193.304 120.909 193.993 122.493 195.297 123.146C197.412 124.207 199.821 122.577 199.821 120.248C199.821 117.919 198.327 116.805 196.771 116.805Z" fill="white"/>
    <path d="M196.682 123.869C196.17 123.869 195.651 123.746 195.16 123.5C193.767 122.801 192.935 121.079 193.18 119.411C193.453 117.558 194.825 116.413 196.777 116.413C198.47 116.413 200.176 117.597 200.176 120.249C200.176 121.417 199.623 122.516 198.688 123.2C198.081 123.646 197.384 123.869 196.688 123.869H196.682ZM196.777 117.197C195.166 117.197 194.081 118.073 193.863 119.542C193.672 120.864 194.334 122.232 195.446 122.793C196.388 123.262 197.453 123.177 198.313 122.547C199.057 122.001 199.487 121.163 199.487 120.249C199.487 117.997 198.026 117.197 196.777 117.197Z" fill="black"/>
    <path d="M191.387 133.147C191.544 131.494 191.387 129.795 191.755 128.181C192.212 126.206 193.53 124.453 195.27 123.777C197.01 123.1 199.126 123.6 200.348 125.13C201.358 126.406 201.672 128.166 201.801 129.857C201.883 130.948 201.904 132.048 201.924 133.147H191.387Z" fill="#00812A"/>
    <path d="M201.924 133.539H191.386C191.291 133.539 191.195 133.493 191.127 133.408C191.059 133.324 191.031 133.216 191.038 133.108C191.1 132.501 191.113 131.871 191.127 131.264C191.154 130.218 191.175 129.134 191.42 128.089C191.925 125.906 193.352 124.115 195.16 123.416C197.085 122.662 199.323 123.27 200.606 124.876C201.746 126.313 202.026 128.281 202.142 129.826C202.224 130.933 202.244 132.055 202.265 133.147C202.265 133.254 202.231 133.354 202.169 133.424C202.101 133.5 202.012 133.539 201.924 133.539ZM191.768 132.762H201.569C201.548 131.817 201.528 130.841 201.453 129.895C201.343 128.466 201.091 126.667 200.088 125.399C198.989 124.015 197.051 123.5 195.385 124.154C193.795 124.776 192.533 126.36 192.089 128.289C191.864 129.25 191.843 130.241 191.823 131.287C191.809 131.771 191.802 132.271 191.768 132.77V132.762Z" fill="black"/>
    <path d="M181.497 131.941C181.435 131.941 181.387 131.887 181.381 131.818C181.306 130.596 181.326 129.351 181.435 128.129C181.435 128.06 181.497 128.006 181.558 128.013C181.62 128.013 181.667 128.083 181.661 128.152C181.551 129.359 181.538 130.588 181.613 131.795C181.613 131.864 181.572 131.926 181.504 131.934C181.504 131.934 181.504 131.934 181.497 131.934V131.941Z" fill="black"/>
    <path d="M183.169 131.94C183.107 131.94 183.053 131.886 183.053 131.817L183.012 130.264C183.012 130.195 183.06 130.134 183.121 130.134C183.189 130.134 183.237 130.188 183.237 130.257L183.278 131.809C183.278 131.879 183.23 131.94 183.169 131.94Z" fill="black"/>
    <path d="M211.437 131.733C211.376 131.733 211.321 131.679 211.321 131.61L211.219 128.358C211.219 128.289 211.267 128.228 211.328 128.228C211.389 128.228 211.444 128.281 211.444 128.351L211.547 131.602C211.547 131.671 211.499 131.733 211.437 131.733Z" fill="black"/>
    <path d="M282.919 152.049C282.919 152.049 282.912 152.049 282.905 152.049C282.755 152.049 282.625 151.926 282.584 151.764C281.704 148.159 279.418 146.291 276.995 144.308C276.476 143.886 275.944 143.447 275.419 142.994C274.156 141.895 273.201 141.072 272.491 140.634C272.32 140.534 272.266 140.296 272.354 140.104C272.443 139.912 272.655 139.842 272.825 139.95C273.583 140.419 274.559 141.249 275.848 142.379C276.367 142.833 276.893 143.263 277.405 143.686C279.691 145.561 281.861 147.337 282.946 150.527C284.065 147.614 285.348 146.63 287.505 144.969C288.222 144.416 289.034 143.793 289.982 142.994C290.269 142.756 290.576 142.502 290.897 142.248C295.483 138.559 303.147 132.394 304.069 101.387C297.913 99.6343 289.409 96.4213 283.103 90.9331C276.251 96.4367 266.362 99.8956 262.117 101.21C262.138 101.541 262.165 101.963 262.192 102.432C262.288 104.054 262.417 106.275 262.52 106.829C262.561 107.036 262.438 107.244 262.254 107.29C262.069 107.328 261.885 107.198 261.844 106.99C261.735 106.391 261.605 104.223 261.503 102.486C261.469 101.856 261.435 101.302 261.407 100.956C261.394 100.772 261.503 100.603 261.66 100.549C265.741 99.3037 275.992 95.791 282.905 90.1414C283.028 90.0415 283.199 90.0415 283.322 90.1491C289.641 95.7449 298.329 98.9886 304.505 100.718C304.662 100.764 304.772 100.926 304.765 101.11C304.376 114.992 302.629 125.238 299.435 132.44C296.746 138.505 293.593 141.042 291.293 142.894C290.972 143.148 290.672 143.394 290.385 143.632C289.423 144.439 288.604 145.069 287.88 145.63C285.465 147.491 284.359 148.336 283.226 151.818C283.178 151.972 283.049 152.072 282.898 152.072L282.919 152.049Z" fill="black"/>
    <path d="M283.015 144.954C282.967 144.962 282.94 144.931 282.919 144.901C282.257 143.817 279.889 141.695 278.865 140.911C278.811 140.873 278.797 140.788 278.838 140.734C278.872 140.673 278.947 140.658 278.995 140.704C280.019 141.488 282.23 143.471 283.015 144.616C283.704 143.632 285.608 141.834 288.666 139.259C297.504 131.818 299.674 121.118 300.568 103.985C292.87 101.81 287.185 99.0197 283.192 95.4608C279.118 98.889 272.034 101.233 267.789 102.632C266.902 102.924 266.124 103.186 265.55 103.393L265.564 103.539C265.625 104.108 265.707 104.892 265.707 105.107C265.707 105.177 265.653 105.238 265.591 105.238C265.53 105.238 265.475 105.177 265.475 105.107C265.475 104.908 265.393 104.1 265.339 103.562L265.312 103.316C265.312 103.255 265.339 103.201 265.393 103.178C265.98 102.963 266.786 102.694 267.727 102.379C271.979 100.972 279.104 98.6123 283.131 95.1841C283.172 95.1457 283.233 95.1457 283.274 95.1841C287.26 98.766 292.965 101.572 300.725 103.747C300.78 103.762 300.814 103.816 300.814 103.878C299.92 121.149 297.743 131.933 288.809 139.451C285.615 142.141 283.697 143.97 283.11 144.893C283.09 144.924 283.056 144.947 283.015 144.947V144.954Z" fill="black"/>
    <path d="M274.906 135.976C282.373 135.976 288.426 129.292 288.426 121.048C288.426 112.804 282.373 106.121 274.906 106.121C267.44 106.121 261.387 112.804 261.387 121.048C261.387 129.292 267.44 135.976 274.906 135.976Z" fill="white"/>
    <path d="M274.907 136.368C267.263 136.368 261.039 129.496 261.039 121.049C261.039 112.601 267.263 105.729 274.907 105.729C282.551 105.729 288.775 112.601 288.775 121.049C288.775 129.496 282.551 136.368 274.907 136.368ZM274.907 106.506C267.639 106.506 261.728 113.032 261.728 121.049C261.728 129.066 267.639 135.592 274.907 135.592C282.175 135.592 288.085 129.066 288.085 121.049C288.085 113.032 282.175 106.506 274.907 106.506Z" fill="black"/>
    <path d="M272.961 118.95L272.674 113.877L276.619 113.677L276.892 118.873L281.383 118.804L281.615 122.854L277.083 123.008L277.322 128.158L273.63 128.427L273.254 123.331L268.388 123.569L268.19 119.288L272.961 118.95Z" fill="#00812A"/>
    <path d="M273.63 128.819C273.453 128.819 273.303 128.665 273.289 128.465L272.941 123.738L268.409 123.961C268.218 123.961 268.061 123.807 268.048 123.592L267.85 119.311C267.843 119.095 267.986 118.919 268.171 118.903L272.593 118.596L272.334 113.907C272.334 113.799 272.361 113.699 272.422 113.623C272.484 113.546 272.573 113.5 272.661 113.492L276.606 113.292C276.797 113.269 276.954 113.446 276.968 113.661L277.22 118.48L281.383 118.419C281.568 118.419 281.718 118.573 281.731 118.78L281.963 122.831C281.963 122.939 281.936 123.039 281.875 123.115C281.813 123.192 281.724 123.238 281.629 123.246L277.445 123.384L277.664 128.142C277.671 128.358 277.527 128.534 277.343 128.55L273.644 128.819C273.644 128.819 273.63 128.819 273.624 128.819H273.63ZM273.255 122.946C273.432 122.946 273.583 123.1 273.596 123.3L273.944 128.019L276.961 127.804L276.736 123.031C276.736 122.923 276.763 122.823 276.824 122.746C276.886 122.67 276.974 122.624 277.07 122.624L281.247 122.485L281.056 119.203L276.893 119.265C276.708 119.265 276.558 119.103 276.545 118.896L276.292 114.084L273.043 114.245L273.303 118.926C273.303 119.026 273.276 119.134 273.214 119.211C273.153 119.288 273.071 119.334 272.975 119.341L268.546 119.649L268.71 123.162L273.235 122.939C273.235 122.939 273.241 122.939 273.248 122.939L273.255 122.946Z" fill="black"/>
    <path d="M110.083 135.439H106.152C105.825 135.439 105.483 135.07 105.483 134.617L105.518 122.372C105.518 121.742 106.036 121.427 106.364 121.427L110.22 121.481C110.547 121.481 110.93 121.857 110.93 122.311L110.916 134.471C110.916 134.932 110.568 135.447 110.083 135.447V135.439Z" fill="black"/>
    <path d="M139.566 135.439H135.635C135.307 135.439 134.966 135.07 134.966 134.617L135 122.372C135 121.742 135.519 121.427 135.846 121.427L139.702 121.481C140.03 121.481 140.412 121.857 140.412 122.311L140.398 134.471C140.398 134.932 140.05 135.447 139.566 135.447V135.439Z" fill="black"/>
    <path d="M141.394 128.614C141.463 124.839 141.783 121.296 141.701 117.522C141.695 117.176 141.681 116.815 141.538 116.53C141.353 116.161 138.965 114.632 137.443 113.909C136.617 111.173 134.351 105.408 133.887 104.655C133.457 103.963 132.829 103.425 132.147 103.425C126.632 103.386 120.995 103.402 115.358 103.425C114.744 103.425 114.095 103.44 113.57 103.848C113.038 104.255 112.71 104.993 112.41 105.7C111.27 108.352 110.13 110.996 108.929 113.848C107.817 114.486 106.704 115.124 105.599 115.762C105.278 115.946 104.957 116.131 104.705 116.453C104.247 117.053 104.159 117.968 104.118 118.806C103.933 122.188 103.995 124.847 104.227 128.414C104.125 130.32 108.062 130.082 109.994 130.082C120.026 130.112 129.362 130.143 139.395 130.166C139.866 130.166 140.35 130.166 140.773 129.897C141.196 129.628 141.388 129.044 141.394 128.598V128.614Z" fill="white"/>
    <path d="M139.484 130.58C139.484 130.58 139.423 130.58 139.395 130.58L109.994 130.496C109.803 130.496 109.599 130.496 109.373 130.496C107.579 130.511 105.115 130.534 104.228 129.481C103.982 129.189 103.866 128.835 103.88 128.436C103.627 124.6 103.6 121.979 103.77 118.797C103.818 117.913 103.914 116.906 104.446 116.214C104.739 115.83 105.115 115.615 105.442 115.43L108.67 113.578C109.858 110.772 110.998 108.113 112.103 105.545C112.397 104.869 112.758 104.023 113.38 103.539C114.014 103.055 114.758 103.055 115.366 103.047C120.791 103.024 126.579 103.001 132.154 103.047C132.891 103.047 133.628 103.554 134.174 104.446C134.679 105.261 136.87 110.864 137.723 113.631C139.034 114.277 141.572 115.807 141.845 116.353C142.037 116.737 142.043 117.19 142.05 117.529C142.098 119.835 141.996 122.094 141.9 124.277C141.839 125.692 141.77 127.16 141.743 128.636C141.736 129.158 141.518 129.904 140.951 130.273C140.474 130.58 139.935 130.596 139.491 130.596L139.484 130.58ZM109.919 129.712H109.994L139.395 129.796C139.818 129.796 140.255 129.796 140.603 129.573C140.897 129.381 141.04 128.935 141.047 128.605C141.074 127.114 141.142 125.646 141.204 124.224C141.299 122.056 141.402 119.811 141.354 117.536C141.354 117.267 141.34 116.937 141.238 116.721C141.026 116.429 138.863 115.007 137.307 114.269C137.218 114.223 137.143 114.139 137.116 114.039C136.283 111.272 134.045 105.591 133.601 104.884C133.192 104.215 132.646 103.816 132.147 103.816C126.572 103.777 120.784 103.793 115.366 103.816C114.833 103.816 114.226 103.816 113.769 104.169C113.298 104.531 112.991 105.238 112.724 105.868C111.605 108.474 110.445 111.164 109.244 114.016C109.21 114.093 109.155 114.154 109.087 114.193L105.756 116.107C105.47 116.268 105.176 116.437 104.971 116.706C104.582 117.213 104.507 118.067 104.466 118.828C104.296 121.979 104.33 124.569 104.576 128.39C104.576 128.405 104.576 128.428 104.576 128.443C104.562 128.636 104.617 128.789 104.733 128.935C105.415 129.742 107.892 129.719 109.373 129.712C109.571 129.712 109.756 129.712 109.926 129.712H109.919Z" fill="black"/>
    <path d="M112.39 114.084C113.4 111.609 114.696 107.274 115.618 106.774C116.211 106.452 124.074 106.59 128.366 106.567C129.274 106.567 130.298 106.613 130.912 107.428C131.24 107.858 133.71 113.9 133.71 113.9L112.39 114.084Z" fill="#00812A"/>
    <path d="M112.39 114.476C112.274 114.476 112.165 114.407 112.097 114.3C112.035 114.184 112.022 114.046 112.076 113.923C112.349 113.247 112.643 112.439 112.957 111.586C114.028 108.642 114.738 106.821 115.468 106.421C115.912 106.175 118.532 106.152 124.634 106.175C125.985 106.175 127.288 106.183 128.367 106.175C129.356 106.175 130.469 106.244 131.179 107.166C131.52 107.612 133.615 112.716 134.031 113.731C134.079 113.854 134.072 113.992 134.011 114.1C133.949 114.215 133.84 114.277 133.724 114.284L112.404 114.469L112.39 114.476ZM121.651 106.944C118.839 106.944 116.137 106.974 115.768 107.128C115.229 107.42 114.287 110.003 113.605 111.886C113.373 112.524 113.148 113.139 112.936 113.692L133.185 113.516C132.243 111.217 130.878 107.989 130.66 107.681C130.148 107.005 129.254 106.951 128.38 106.959C127.302 106.959 125.999 106.959 124.647 106.959C123.712 106.959 122.675 106.959 121.665 106.959L121.651 106.944Z" fill="black"/>
    <path d="M120.135 124.193C118.511 124.193 116.894 124.193 115.276 124.17C115.215 124.17 115.16 124.109 115.16 124.04C115.16 123.97 115.215 123.909 115.276 123.909C120.367 123.955 125.534 123.924 130.618 123.832C130.68 123.832 130.734 123.886 130.734 123.963C130.734 124.032 130.686 124.093 130.618 124.093C127.144 124.155 123.63 124.186 120.129 124.186L120.135 124.193Z" fill="black"/>
    <path d="M120.135 120.949C118.511 120.949 116.894 120.949 115.276 120.926C115.215 120.926 115.16 120.865 115.16 120.795C115.16 120.726 115.215 120.665 115.276 120.665C120.367 120.711 125.534 120.68 130.618 120.588C130.673 120.588 130.734 120.642 130.734 120.719C130.734 120.788 130.686 120.849 130.618 120.849C127.144 120.911 123.63 120.941 120.129 120.941L120.135 120.949Z" fill="black"/>
    <path d="M137.013 112.541C136.849 112.541 136.706 112.41 136.672 112.225C136.638 112.018 136.76 111.81 136.945 111.772C138.262 111.488 139.606 111.372 140.944 111.441C141.135 111.449 141.285 111.634 141.272 111.849C141.265 112.064 141.101 112.241 140.91 112.218C139.627 112.156 138.337 112.264 137.074 112.541C137.054 112.541 137.027 112.541 137.006 112.541H137.013Z" fill="black"/>
    <path d="M109.38 112.656C109.339 112.656 109.291 112.648 109.25 112.625C108.356 112.218 106.084 112.064 105.128 112.187C104.937 112.21 104.767 112.056 104.746 111.841C104.726 111.626 104.862 111.434 105.053 111.411C106.091 111.28 108.472 111.426 109.51 111.903C109.687 111.987 109.769 112.21 109.701 112.41C109.646 112.564 109.517 112.656 109.38 112.656Z" fill="black"/>
    <path d="M135.88 152.05C135.88 152.05 135.88 152.05 135.873 152.05C135.73 152.05 135.6 151.934 135.553 151.781C134.775 149.075 133.143 146.646 130.96 144.924C128.236 143.133 122.04 138.314 120.006 135.247C119.89 135.078 119.924 134.832 120.074 134.701C120.224 134.57 120.443 134.609 120.559 134.778C122.442 137.622 128.475 142.388 131.321 144.263C131.328 144.263 131.335 144.271 131.342 144.278C133.396 145.893 134.993 148.106 135.901 150.589C137.074 147.622 138.412 146.631 140.678 144.963C141.422 144.409 142.268 143.787 143.258 142.987C143.558 142.749 143.879 142.503 144.213 142.242C148.99 138.552 156.975 132.387 157.938 101.388C151.529 99.6428 142.664 96.4222 136.099 90.934C133.846 92.9248 126.053 98.0056 124.169 99.197C124.005 99.3046 123.794 99.2354 123.698 99.051C123.603 98.8665 123.664 98.6282 123.828 98.5206C125.766 97.2907 133.983 91.9332 135.86 90.1423C135.983 90.027 136.16 90.0193 136.29 90.1269C142.875 95.7304 151.932 98.9664 158.368 100.704C158.525 100.75 158.641 100.911 158.634 101.096C158.224 114.985 156.409 125.231 153.085 132.426C150.28 138.491 146.998 141.027 144.602 142.88C144.268 143.133 143.954 143.379 143.66 143.617C142.657 144.425 141.804 145.055 141.053 145.608C138.535 147.468 137.382 148.314 136.201 151.796C136.146 151.95 136.023 152.05 135.88 152.05Z" fill="black"/>
    <path d="M135.853 144.378C135.853 144.378 135.853 144.378 135.846 144.378C135.812 144.378 135.778 144.355 135.758 144.324C135.437 143.825 133.533 142.357 131.519 140.804C129.172 138.998 126.517 136.945 125.766 135.954C125.725 135.9 125.732 135.815 125.78 135.769C125.828 135.723 125.903 135.731 125.944 135.785C126.674 136.753 129.322 138.79 131.656 140.589C133.635 142.111 135.362 143.44 135.867 144.055C137.061 142.618 138.037 141.941 140.112 140.496C140.63 140.135 141.217 139.728 141.893 139.243C151.099 132.695 153.297 122.226 154.293 103.978C146.274 101.802 140.357 99.0199 136.194 95.461C135.253 96.4372 133.041 97.7362 131.71 98.5203C131.315 98.7509 131.001 98.943 130.816 99.0583C130.762 99.0968 130.694 99.0737 130.659 99.0122C130.625 98.9507 130.646 98.8738 130.7 98.8354C130.885 98.7124 131.199 98.5279 131.601 98.2974C132.959 97.498 135.239 96.1528 136.106 95.1997C136.147 95.1536 136.208 95.1536 136.256 95.192C140.405 98.7739 146.356 101.579 154.437 103.755C154.491 103.77 154.525 103.824 154.525 103.885C154.116 111.449 153.468 119.328 151.488 125.7C149.578 131.849 146.568 136.223 142.016 139.466C141.34 139.951 140.753 140.358 140.235 140.719C138.133 142.187 137.17 142.864 135.949 144.347C135.928 144.37 135.894 144.386 135.867 144.386L135.853 144.378Z" fill="black"/>
    <path d="M106.814 120.657C106.63 120.657 106.48 120.495 106.466 120.288C106.459 120.073 106.603 119.888 106.794 119.881C108.322 119.804 109.865 119.758 111.38 119.742C111.564 119.742 111.728 119.911 111.728 120.127C111.728 120.342 111.578 120.519 111.387 120.519C109.878 120.534 108.336 120.588 106.821 120.657C106.821 120.657 106.814 120.657 106.807 120.657H106.814Z" fill="black"/>
    <path d="M134.72 120.589C134.536 120.589 134.386 120.427 134.372 120.22C134.365 120.004 134.509 119.82 134.7 119.812C136.215 119.735 137.764 119.689 139.286 119.674C139.477 119.674 139.627 119.843 139.634 120.058C139.634 120.273 139.484 120.45 139.293 120.45C137.771 120.473 136.235 120.519 134.727 120.589H134.714H134.72Z" fill="black"/>
    <path d="M352.244 118.989C352.101 126.076 355.95 133.309 361.894 135.646C365.129 136.914 368.678 136.737 371.995 137.713C375.312 138.689 378.69 141.503 378.711 145.361C378.724 147.929 377.434 153.74 384.252 157.145C389.876 159.958 388.531 175.162 371.122 181.55C365.785 183.51 369.224 178.583 363.683 177.622C358.209 176.676 353.241 173.187 349.46 168.621C345.679 164.055 343.011 158.459 340.929 152.679C338.534 146.022 336.855 138.666 338.336 131.679C339.817 124.692 345.29 118.374 352.251 118.997L352.244 118.989Z" fill="black"/>
    <path d="M318.202 102.802C320.038 112.871 321.806 123.709 318.148 133.125C316.96 136.184 315.227 138.975 314.251 142.126C313.091 145.877 313.05 149.951 313.37 153.909C313.971 161.388 315.964 169.052 320.632 174.417C325.3 179.782 333.107 182.111 338.868 178.33C343.918 175.009 346.225 167.884 345.911 161.312C345.59 154.732 343.099 148.56 340.471 142.679C334.152 128.544 326.788 115 318.202 102.809V102.802Z" fill="black"/>
    <path d="M331.135 151.911C331.299 146.546 330.712 143.541 330.521 139.521C332.446 138.437 334.52 137.683 336.643 137.291C337.598 137.115 338.67 137.053 339.407 137.699C339.864 138.106 342.048 135.939 342.273 136.538C343.823 140.635 343.959 146.477 345.508 150.574C345.624 150.889 351.064 150.32 351.186 150.635C351.691 151.973 351.268 163.08 350.893 163.364C330.999 178.261 321.417 156.954 321.417 156.954C321.417 156.954 325.027 154.463 331.135 151.904V151.911Z" fill="white"/>
    <path d="M337.503 169.051C336.063 169.051 334.657 168.851 333.285 168.444C325.198 166.046 321.151 157.229 321.11 157.145C321.028 156.96 321.083 156.745 321.24 156.637C321.274 156.614 324.857 154.154 330.801 151.641C330.89 148.236 330.671 145.776 330.46 143.393C330.351 142.171 330.242 140.903 330.173 139.55C330.166 139.396 330.242 139.25 330.364 139.181C332.33 138.074 334.418 137.313 336.589 136.921C337.53 136.752 338.725 136.645 339.585 137.375C339.789 137.359 340.376 136.975 340.731 136.737C341.496 136.237 341.946 135.953 342.294 136.083C342.43 136.137 342.54 136.245 342.594 136.391C343.386 138.482 343.816 141.026 344.232 143.486C344.635 145.845 345.044 148.282 345.768 150.265C346.164 150.319 347.406 150.265 348.327 150.219C351.18 150.088 351.364 150.127 351.501 150.488C351.862 151.441 351.753 156.03 351.712 157.414C351.535 163.355 351.214 163.594 351.077 163.693C346.321 167.26 341.768 169.051 337.496 169.051H337.503ZM321.881 157.106C322.68 158.682 326.543 165.638 333.463 167.69C338.691 169.235 344.464 167.69 350.627 163.102C350.961 161.964 351.275 152.648 350.907 150.957C350.49 150.911 349.269 150.957 348.354 151.003C345.508 151.134 345.324 151.095 345.188 150.734C344.396 148.643 343.966 146.099 343.55 143.632C343.147 141.272 342.738 138.835 342.014 136.852C341.796 136.937 341.373 137.213 341.079 137.406C340.253 137.951 339.605 138.374 339.196 138.013C338.54 137.436 337.517 137.536 336.698 137.682C334.678 138.051 332.719 138.751 330.876 139.758C330.938 140.995 331.04 142.125 331.142 143.309C331.361 145.776 331.586 148.328 331.477 151.918C331.477 152.071 331.381 152.217 331.252 152.271C326.201 154.385 322.844 156.476 321.881 157.098V157.106Z" fill="black"/>
    <path d="M316.148 105.269C316.735 110.242 317.623 115.454 316.483 120.404C315.862 123.102 315.916 136.822 325.696 140.735C330.835 142.787 336.739 142.364 342.041 138.744C345.638 136.292 349.999 128.659 349.132 121.08C352.108 122.01 355.049 119.751 355.083 116.737C355.104 115 353.405 112.825 351.603 112.925C350.211 113.002 350.047 113.017 348.989 113.924C348.266 110.373 347.829 106.753 347.883 102.663C344.505 98.4665 339.079 96.322 333.661 95.4073C331.866 95.1075 330.03 94.9154 328.208 95.1767C323 95.9069 315.548 100.158 316.148 105.261V105.269Z" fill="white"/>
    <path d="M332.029 142.372C329.866 142.372 327.703 141.949 325.58 141.104C315.814 137.199 315.391 123.609 316.148 120.312C317.131 116.038 316.571 111.518 316.026 107.152C315.95 106.538 315.875 105.93 315.8 105.331C315.63 103.901 316.025 102.479 316.981 101.088C319.301 97.698 324.474 95.3229 328.16 94.8002C330.166 94.5158 332.18 94.7771 333.708 95.0385C338.185 95.7917 344.328 97.6903 348.136 102.418C348.197 102.494 348.225 102.587 348.225 102.687C348.177 106.192 348.484 109.574 349.2 113.271C349.972 112.664 350.32 112.618 351.575 112.548C352.456 112.502 353.398 112.948 354.155 113.771C354.94 114.624 355.425 115.769 355.411 116.761C355.397 118.221 354.742 119.597 353.63 120.535C352.476 121.511 350.968 121.895 349.514 121.603C350.156 129.32 345.747 136.676 342.205 139.098C339.011 141.281 335.524 142.387 332.016 142.387L332.029 142.372ZM316.49 105.223C316.558 105.823 316.633 106.43 316.715 107.045C317.268 111.488 317.841 116.084 316.817 120.512C316.387 122.372 315.848 136.392 325.812 140.374C331.176 142.518 336.875 141.826 341.857 138.421C345.235 136.115 349.644 128.636 348.784 121.142C348.771 121.011 348.811 120.881 348.9 120.796C348.989 120.711 349.105 120.681 349.221 120.711C350.613 121.15 352.115 120.842 353.227 119.897C354.169 119.097 354.715 117.944 354.728 116.738C354.735 115.961 354.339 115.031 353.684 114.324C353.063 113.648 352.312 113.279 351.616 113.317C350.258 113.394 350.176 113.394 349.194 114.239C349.098 114.316 348.975 114.339 348.866 114.293C348.757 114.247 348.675 114.139 348.648 114.016C347.849 110.081 347.494 106.514 347.535 102.817C343.857 98.3437 337.94 96.5296 333.606 95.7994C332.125 95.5458 330.173 95.2998 328.249 95.5688C324.7 96.0685 319.738 98.336 317.527 101.557C316.694 102.771 316.346 104.001 316.49 105.215V105.223Z" fill="black"/>
    <path d="M337.503 125.361C334.336 125.361 331.538 122.417 331.081 118.435C330.842 116.36 331.265 114.315 332.275 112.678C333.292 111.026 334.78 109.98 336.459 109.734C339.919 109.227 343.133 112.317 343.625 116.606C343.863 118.681 343.44 120.726 342.43 122.363C341.413 124.016 339.926 125.061 338.247 125.307C338.001 125.346 337.748 125.361 337.503 125.361ZM337.202 110.464C336.984 110.464 336.766 110.48 336.547 110.511C335.06 110.726 333.749 111.656 332.842 113.124C331.934 114.607 331.545 116.46 331.763 118.335C332.207 122.202 335.073 124.984 338.151 124.538C339.639 124.323 340.949 123.393 341.857 121.925C342.765 120.442 343.154 118.589 342.935 116.714C342.526 113.124 340.021 110.464 337.196 110.464H337.202Z" fill="black"/>
    <path d="M319.833 126.268C316.667 126.268 313.868 123.324 313.411 119.343C312.92 115.046 315.336 111.149 318.789 110.641C322.249 110.134 325.464 113.224 325.955 117.513C326.194 119.589 325.771 121.633 324.761 123.27C323.744 124.923 322.256 125.968 320.577 126.214C320.331 126.253 320.079 126.268 319.833 126.268ZM319.526 111.372C319.308 111.372 319.089 111.387 318.871 111.418C315.793 111.864 313.643 115.376 314.087 119.243C314.53 123.109 317.397 125.892 320.475 125.446C321.962 125.23 323.273 124.3 324.181 122.832C325.088 121.349 325.477 119.496 325.259 117.621C324.849 114.031 322.345 111.372 319.519 111.372H319.526Z" fill="black"/>
    <path d="M353.029 74.8993C351.221 68.2044 344.942 64.4303 339.004 66.4672C333.06 68.5041 329.709 75.5758 331.518 82.263C333.326 88.958 339.605 92.7321 345.542 90.6952C351.487 88.6582 354.838 81.5866 353.029 74.8993Z" fill="black"/>
    <path d="M348.593 114.447C345.733 109.458 343.979 105.861 343.037 99.7961C332.493 106.814 322.474 105.607 312.367 105.169C312.149 103.232 312.51 101.249 313.227 99.4118C314.974 94.9228 317.158 91.0335 323.252 87.9742C327.525 85.8297 333.278 84.4077 337.905 85.161C342.505 85.9065 346.456 88.7121 349.678 92.0711C352.237 94.7461 354.407 99.1274 355.172 103.463C355.827 107.175 355.021 109.904 353.547 113.686C352.715 113.186 351.937 112.671 350.974 112.879C350.012 113.086 349.398 113.632 348.593 114.454V114.447Z" fill="black"/>
    <path d="M333.313 133.44C332.562 133.44 331.866 133.179 331.313 132.664C331.17 132.525 331.149 132.279 331.272 132.118C331.395 131.956 331.613 131.933 331.757 132.072C332.487 132.756 333.572 132.856 334.671 132.341C335.892 131.772 336.889 130.665 337.483 129.228C337.564 129.036 337.769 128.951 337.94 129.043C338.11 129.136 338.186 129.366 338.104 129.558C337.435 131.172 336.309 132.41 334.93 133.063C334.384 133.325 333.831 133.448 333.306 133.448L333.313 133.44Z" fill="black"/>
    <path d="M337.053 117.86C336.984 117.237 336.452 116.799 335.872 116.883C335.292 116.968 334.876 117.545 334.944 118.159C335.012 118.782 335.544 119.22 336.125 119.136C336.705 119.051 337.121 118.475 337.053 117.86Z" fill="black"/>
    <path d="M321.315 118.789C321.247 118.167 320.715 117.729 320.135 117.813C319.555 117.898 319.138 118.474 319.207 119.089C319.275 119.712 319.807 120.15 320.387 120.065C320.967 119.981 321.384 119.404 321.315 118.789Z" fill="black"/>
    <path d="M327.224 126.007C327.183 126.007 327.143 125.999 327.102 125.984L325.668 125.369C325.498 125.292 325.177 125.162 325.054 124.8C324.904 124.37 325.163 123.986 325.3 123.778C326.385 122.133 326.747 120.012 326.269 118.082C326.214 117.875 326.324 117.66 326.508 117.606C326.692 117.544 326.883 117.667 326.931 117.875C327.47 120.027 327.067 122.41 325.853 124.239C325.75 124.393 325.702 124.485 325.702 124.531C325.709 124.531 325.757 124.57 325.914 124.639L327.347 125.254C327.525 125.331 327.613 125.554 327.545 125.753C327.491 125.907 327.361 126.007 327.224 126.007Z" fill="black"/>
    <path d="M325.355 116.36C325.164 116.36 325.014 116.191 325.007 115.976C324.993 114.884 325.935 114.123 326.884 113.847C328.433 113.401 330.187 113.854 331.361 115.007C331.504 115.146 331.518 115.392 331.395 115.553C331.272 115.714 331.054 115.73 330.91 115.592C329.907 114.608 328.392 114.216 327.061 114.6C326.379 114.792 325.696 115.322 325.703 115.96C325.703 116.176 325.553 116.352 325.362 116.352L325.355 116.36Z" fill="black"/>
    <path d="M342.909 114.477C342.718 114.477 342.561 114.3 342.561 114.093C342.561 113.878 342.718 113.701 342.902 113.701L348.109 113.686C348.3 113.686 348.457 113.862 348.457 114.07C348.457 114.285 348.3 114.462 348.116 114.462L342.909 114.477Z" fill="black"/>
    <path d="M349.064 118.536C348.873 118.536 348.723 118.36 348.723 118.144C348.737 116.707 348.484 115.254 347.986 113.932C347.911 113.732 347.993 113.509 348.17 113.425C348.348 113.34 348.545 113.433 348.621 113.632C349.153 115.054 349.426 116.615 349.412 118.152C349.412 118.367 349.255 118.536 349.064 118.536Z" fill="black"/>
    <path d="M387.207 197.745C382.6 183.571 380.061 169.589 369.203 159.374C363.989 154.47 357.703 150.995 350.455 150.473C350.012 158.374 341.863 163.578 337.495 164.17C335.12 164.493 326.289 165.815 326.289 154.093C323.409 155.384 313.82 156.714 309.978 170.012C308.408 175.454 305.59 196.277 296.308 208.345C294.117 211.196 292.09 192.226 288.937 193.486C285.839 194.724 282.276 196.799 282.044 200.489C281.86 203.364 283.969 205.869 286.317 207.007C291.374 209.451 293.264 221.304 298.71 222.173C304.375 223.072 313.418 225.424 320.263 201.319C323.764 205.262 326.016 209.49 329.94 211.873C341.249 218.737 378.887 226.454 385.016 227.676C385.528 227.776 386.681 227.307 386.886 226.769C388.176 223.372 391.547 211.096 387.207 197.737V197.745Z" fill="white"/>
    <path d="M385.166 228.076C385.091 228.076 385.023 228.076 384.961 228.06C377.72 226.615 341.037 219.052 329.783 212.218C327.067 210.566 325.136 208.06 323.095 205.4C322.249 204.301 321.375 203.163 320.42 202.049C317.506 212.072 313.964 218.344 309.603 221.219C305.795 223.725 302.157 223.133 299.236 222.657C299.038 222.626 298.847 222.595 298.663 222.564C295.585 222.072 293.606 218.314 291.695 214.678C290.091 211.626 288.426 208.459 286.18 207.376C283.805 206.223 281.499 203.648 281.696 200.473C281.894 197.376 284.222 194.97 288.821 193.133C289.156 193.002 289.49 193.025 289.818 193.209C291.265 194.024 292.377 198.037 293.455 201.911C294.179 204.516 295.168 208.091 295.83 208.252C295.899 208.267 295.987 208.175 296.049 208.098C303.44 198.482 306.75 183.056 308.524 174.769C308.975 172.656 309.337 170.988 309.65 169.904C313.015 158.259 320.864 155.584 324.638 154.3C325.252 154.093 325.777 153.908 326.166 153.739C326.276 153.693 326.392 153.708 326.487 153.778C326.583 153.847 326.637 153.97 326.637 154.1C326.637 157.652 327.47 160.288 329.115 161.933C331.749 164.569 335.837 164.016 337.372 163.808H337.454C341.638 163.232 349.677 158.159 350.107 150.465C350.107 150.365 350.155 150.265 350.223 150.196C350.292 150.126 350.387 150.096 350.476 150.096C357.219 150.58 363.593 153.608 369.421 159.089C378.457 167.583 381.754 178.582 385.248 190.227C385.971 192.648 386.722 195.146 387.527 197.621C391.458 209.728 389.172 221.742 387.2 226.938C386.947 227.607 385.835 228.091 385.159 228.091L385.166 228.076ZM320.263 200.927C320.352 200.927 320.44 200.965 320.509 201.042C321.642 202.318 322.645 203.625 323.614 204.885C325.614 207.491 327.504 209.951 330.104 211.526C341.269 218.306 377.857 225.846 385.077 227.291C385.487 227.368 386.449 226.938 386.565 226.615C386.777 226.054 391.711 212.741 386.879 197.875C386.074 195.392 385.323 192.887 384.593 190.465C381.133 178.928 377.864 168.028 368.978 159.673C363.361 154.392 357.239 151.441 350.769 150.887C350.387 155.269 347.801 158.451 345.658 160.365C343.187 162.579 340 164.216 337.529 164.554H337.448C335.823 164.785 331.517 165.369 328.644 162.502C326.938 160.795 326.023 158.151 325.941 154.638C325.613 154.761 325.238 154.892 324.822 155.03C320.884 156.368 313.547 158.866 310.292 170.127C309.985 171.188 309.63 172.84 309.18 174.939C307.392 183.294 304.054 198.836 296.554 208.598C296.226 209.028 295.892 209.059 295.673 209.005C294.663 208.767 293.954 206.361 292.78 202.133C291.845 198.759 290.678 194.562 289.497 193.894C289.34 193.801 289.19 193.794 289.04 193.855C284.727 195.577 282.55 197.76 282.379 200.519C282.201 203.294 284.365 205.646 286.446 206.653C288.897 207.837 290.616 211.111 292.282 214.271C294.192 217.914 296.001 221.35 298.751 221.788C298.943 221.819 299.134 221.849 299.332 221.88C304.935 222.795 313.404 224.186 319.929 201.196C319.963 201.065 320.058 200.965 320.174 200.934C320.202 200.934 320.229 200.927 320.256 200.927H320.263Z" fill="black"/>
    <path d="M305.324 226.438L331.047 227.061L331.081 222.141L302.451 221.357L305.324 226.446V226.438Z" fill="black"/>
    <path d="M373.702 211.413C363.369 210.767 352.982 209.96 342.588 209.161C341.66 208.984 337.033 208.246 335.893 208.054C334.924 207.892 334.003 207.493 333.115 207.031C330.024 205.425 323.39 202.274 321.909 203.204C318.497 204.334 315.412 207.108 312.996 210.613C311.638 212.581 310.532 215.848 311.092 216.409C311.447 216.763 311.986 216.916 312.382 216.54C313.992 212.658 316.852 209.46 320.312 207.685C318.702 208.707 317.207 209.952 315.856 211.374C314.491 212.819 313.242 214.564 312.935 216.64C312.914 216.801 312.894 216.978 312.969 217.116C313.153 217.462 313.624 217.262 313.911 217.009C314.463 216.524 321.568 210.022 322.899 210.191C321.131 210.944 314.839 216.693 314.811 217.308C314.798 217.6 314.852 217.908 315.009 218.139C315.235 218.454 315.63 218.546 315.978 218.484C316.327 218.423 316.647 218.215 316.948 218.008C318.981 216.617 320.838 214.872 323.035 213.849C324.134 213.334 325.472 213.042 326.448 213.803C324.489 214.641 322.66 215.856 321.124 217.447C320.879 217.7 320.674 218 320.51 218.331C320.271 218.815 319.998 219.522 320.333 219.922C320.879 220.575 321.343 220.245 321.814 219.937C323.697 218.538 325.622 217.385 327.635 216.478C328.263 216.202 329.007 215.956 329.573 216.363C330.065 216.717 332.433 218.377 337.306 218.661C338.971 218.761 340.575 219.245 342.649 219.891C370.037 228.392 378.22 231.782 384.854 228.569C386.15 227.939 386.594 227.17 386.157 224.664C385.004 217.962 383.871 214.149 373.695 211.413H373.702Z" fill="white"/>
    <path d="M379.305 230.175C374.064 230.175 366.591 227.823 352.539 223.395C349.577 222.465 346.219 221.405 342.568 220.275C340.629 219.675 338.957 219.153 337.292 219.06C332.74 218.791 330.249 217.323 329.389 216.701C328.952 216.385 328.29 216.616 327.765 216.854C325.799 217.738 323.916 218.853 322.005 220.275L321.957 220.306C321.5 220.605 320.804 221.066 320.08 220.198C319.521 219.529 320.039 218.492 320.21 218.146C320.394 217.777 320.626 217.446 320.892 217.169C322.23 215.786 323.793 214.656 325.56 213.803C324.769 213.611 323.868 213.895 323.172 214.225C321.739 214.894 320.415 215.909 319.138 216.885C318.49 217.385 317.814 217.892 317.132 218.361C316.804 218.584 316.449 218.814 316.04 218.891C315.528 218.983 315.03 218.799 314.743 218.407C314.545 218.13 314.45 217.754 314.463 217.315C314.463 217.2 314.545 217.039 314.702 216.816C314.593 216.916 314.484 217.016 314.368 217.116C314.252 217.223 314.163 217.3 314.122 217.339C313.876 217.561 313.481 217.769 313.139 217.692C312.941 217.654 312.785 217.531 312.675 217.339C312.593 217.192 312.573 217.031 312.566 216.885C312.082 217.308 311.385 217.239 310.86 216.716C309.959 215.817 311.577 212.058 312.723 210.39C315.357 206.562 318.49 203.956 321.78 202.857C323.547 201.858 330.385 205.202 333.259 206.693C333.975 207.069 334.931 207.515 335.941 207.684C336.248 207.738 336.821 207.83 337.497 207.938C339.367 208.245 341.919 208.66 342.622 208.791C352.757 209.575 363.24 210.39 373.716 211.043C373.736 211.043 373.757 211.043 373.777 211.051C384.157 213.841 385.324 217.823 386.498 224.61C386.935 227.131 386.567 228.184 384.99 228.953C383.27 229.783 381.475 230.19 379.291 230.19L379.305 230.175ZM328.87 215.763C329.178 215.763 329.485 215.84 329.764 216.04C330.577 216.624 332.945 218.015 337.333 218.276C339.073 218.376 340.78 218.907 342.752 219.522C346.403 220.651 349.761 221.712 352.723 222.642C372.446 228.853 379.093 230.944 384.731 228.215C385.795 227.7 386.253 227.185 385.829 224.741C384.683 218.084 383.618 214.487 373.661 211.804C363.185 211.143 352.709 210.336 342.574 209.552C342.561 209.552 342.554 209.552 342.54 209.552C341.865 209.429 339.183 208.991 337.415 208.699C336.732 208.591 336.166 208.499 335.852 208.445C334.753 208.261 333.743 207.784 332.979 207.392C328.345 204.986 323.179 202.865 322.087 203.549C322.066 203.564 322.039 203.572 322.018 203.58C318.899 204.61 315.794 207.2 313.276 210.859C311.85 212.934 311.072 215.74 311.331 216.132C311.536 216.339 311.863 216.47 312.116 216.293C313.76 212.388 316.688 209.129 320.176 207.338C320.346 207.254 320.544 207.331 320.626 207.515C320.708 207.7 320.647 207.93 320.49 208.03C318.906 209.037 317.432 210.259 316.101 211.666C314.422 213.441 313.528 215.048 313.283 216.716C313.262 216.877 313.269 216.916 313.276 216.931C313.317 216.947 313.515 216.893 313.706 216.724C313.747 216.685 313.829 216.608 313.945 216.508C321.575 209.652 322.605 209.783 322.947 209.829C323.104 209.852 323.233 209.99 323.247 210.167C323.267 210.344 323.179 210.513 323.028 210.582C321.356 211.289 315.624 216.531 315.166 217.408C315.166 217.623 315.207 217.8 315.289 217.923C315.433 218.123 315.719 218.169 315.931 218.13C316.217 218.076 316.497 217.9 316.777 217.707C317.446 217.246 318.108 216.739 318.756 216.255C320.067 215.255 321.418 214.225 322.912 213.518C323.984 213.019 325.499 212.611 326.652 213.518C326.755 213.603 326.816 213.741 326.796 213.887C326.782 214.033 326.693 214.149 326.577 214.202C324.578 215.056 322.824 216.255 321.363 217.769C321.152 217.992 320.967 218.253 320.817 218.553C320.537 219.114 320.456 219.529 320.592 219.691C320.926 220.09 321.131 219.975 321.616 219.66L321.65 219.637C323.588 218.199 325.513 217.054 327.519 216.155C327.929 215.97 328.406 215.794 328.877 215.794L328.87 215.763Z" fill="black"/>
    <path d="M232.244 181.512L288.152 181.858L307.425 226.439L252.036 226.278L232.244 181.512Z" fill="white"/>
    <path d="M307.426 226.831L252.036 226.677C251.907 226.677 251.784 226.593 251.729 226.462L231.931 181.696C231.876 181.573 231.883 181.435 231.944 181.319C232.006 181.204 232.122 181.135 232.238 181.135L288.146 181.481C288.275 181.481 288.398 181.565 288.453 181.696L307.726 226.278C307.78 226.401 307.774 226.539 307.705 226.654C307.644 226.77 307.535 226.839 307.412 226.839L307.426 226.831ZM252.255 225.893L306.873 226.047L287.941 182.249L232.804 181.911L252.255 225.893Z" fill="black"/>
    <path d="M267.61 199.682C266.02 199.505 264.287 199.982 263.645 201.627C262.997 203.272 263.495 205.324 264.669 206.539C265.849 207.753 267.59 208.137 269.146 207.745C269.985 207.53 270.818 207.077 271.302 206.269C271.637 205.716 271.78 205.032 271.787 204.356C271.801 202.142 270.907 200.043 267.617 199.682H267.61Z" fill="white"/>
    <path d="M267.951 208.275C266.627 208.275 265.351 207.76 264.437 206.814C263.106 205.446 262.642 203.194 263.324 201.457C263.952 199.866 265.563 199.051 267.644 199.282C271.371 199.697 272.142 202.264 272.128 204.347C272.128 205.162 271.937 205.9 271.589 206.476C270.982 207.491 269.965 207.921 269.221 208.114C268.798 208.221 268.374 208.275 267.951 208.275ZM267.01 200.035C266.081 200.035 264.546 200.281 263.959 201.78C263.392 203.225 263.788 205.1 264.901 206.246C265.945 207.322 267.542 207.745 269.064 207.36C269.944 207.137 270.633 206.668 271.009 206.046C271.35 205.477 271.432 204.808 271.432 204.347C271.446 201.757 270.183 200.35 267.569 200.066C267.433 200.05 267.242 200.035 267.003 200.035H267.01Z" fill="black"/>
    <path d="M367.538 211.404C367.395 211.404 367.258 211.304 367.211 211.135C363.321 197.868 361.123 189.475 361.123 171.281C361.123 171.065 361.28 170.889 361.471 170.889C361.662 170.889 361.819 171.065 361.819 171.281C361.819 189.352 364.01 197.699 367.873 210.889C367.934 211.097 367.832 211.312 367.654 211.381C367.62 211.397 367.579 211.404 367.545 211.404H367.538Z" fill="black"/>
    <path d="M320.263 201.705C320.154 201.705 320.045 201.643 319.977 201.536C314.968 193.419 316.319 187.462 317.629 181.712C318.284 178.83 318.967 175.855 318.858 172.596C318.851 172.381 319.001 172.204 319.192 172.196C319.383 172.181 319.54 172.358 319.547 172.573C319.656 175.947 318.967 178.976 318.298 181.912C316.967 187.754 315.711 193.273 320.543 201.098C320.653 201.274 320.612 201.52 320.455 201.636C320.393 201.682 320.325 201.705 320.257 201.705H320.263Z" fill="black"/>
    <path d="M336.608 181.734C331.531 181.734 326.453 181.219 321.519 179.828C321.457 179.812 321.416 179.743 321.437 179.674C321.451 179.605 321.519 179.567 321.573 179.582C334.09 183.118 347.596 180.989 359.505 179.105C359.567 179.098 359.628 179.144 359.635 179.213C359.642 179.282 359.601 179.351 359.539 179.359C352.292 180.504 344.457 181.734 336.608 181.734Z" fill="black"/>
    <path d="M341.188 192.727C333.728 192.727 326.269 191.727 319.048 189.744C318.987 189.729 318.946 189.66 318.966 189.59C318.98 189.521 319.041 189.475 319.103 189.498C332.356 193.149 346.422 193.449 359.785 190.367C359.846 190.351 359.908 190.397 359.921 190.467C359.935 190.536 359.894 190.605 359.833 190.62C353.718 192.027 347.453 192.734 341.188 192.734V192.727Z" fill="black"/>
    <path d="M388.061 215.04C388.061 215.04 387.993 215.025 387.972 214.994C383.29 208.783 375.653 205.655 368.522 207.031C368.46 207.046 368.399 206.993 368.392 206.923C368.378 206.854 368.426 206.785 368.488 206.777C375.694 205.394 383.42 208.553 388.15 214.833C388.191 214.887 388.184 214.971 388.136 215.017C388.115 215.04 388.088 215.048 388.061 215.048V215.04Z" fill="black"/>
    <path d="M387.207 209.306C387.207 209.306 387.18 209.306 387.166 209.298C386.409 208.952 385.794 208.329 385.194 207.73C384.989 207.522 384.771 207.307 384.552 207.107C383.221 205.877 381.624 205.086 379.925 204.801C379.864 204.794 379.816 204.724 379.829 204.655C379.836 204.586 379.898 204.532 379.959 204.548C381.699 204.84 383.337 205.654 384.702 206.915C384.921 207.115 385.139 207.338 385.351 207.545C385.931 208.129 386.531 208.737 387.255 209.067C387.316 209.09 387.343 209.167 387.316 209.236C387.296 209.29 387.255 209.321 387.207 209.321V209.306Z" fill="black"/>
    <path d="M392.251 69.8192C392.231 68.8661 392.354 67.913 392.627 67.0213C392.804 66.4448 393.043 65.876 393.432 65.461C393.821 65.0459 394.367 64.7922 394.886 64.9306C395.391 65.0613 395.786 65.5455 396.012 66.0836C396.237 66.6216 396.312 67.2289 396.38 67.8207C396.462 68.5048 396.551 69.1812 396.633 69.8653L392.251 69.8192Z" fill="white"/>
    <path d="M396.632 70.2571L392.251 70.211C392.067 70.211 391.916 70.0419 391.91 69.8343C391.882 68.8351 392.019 67.8435 392.305 66.8981C392.538 66.1371 392.817 65.5914 393.193 65.184C393.698 64.6382 394.373 64.4 394.967 64.5537C395.534 64.7074 396.032 65.207 396.325 65.9219C396.571 66.5214 396.653 67.1825 396.728 67.7743L396.98 69.819C396.994 69.9343 396.967 70.0419 396.899 70.1264C396.83 70.211 396.742 70.2571 396.639 70.2571H396.632ZM392.599 69.4346L396.237 69.4731L396.039 67.882C395.97 67.3208 395.895 66.7443 395.697 66.2524C395.493 65.7605 395.165 65.4069 394.81 65.3147C394.442 65.2147 394.012 65.3838 393.677 65.7451C393.384 66.0602 393.159 66.5061 392.961 67.1517C392.735 67.8896 392.613 68.6583 392.599 69.4423V69.4346Z" fill="black"/>
    <path d="M418.833 95.6929C417.857 86.3999 413.92 77.9985 407.265 72.641C400.611 67.2835 391.637 66.5994 384.198 70.3427C378.574 73.1714 371.347 80.4044 368.549 95.7775C371.163 91.8958 375.49 90.42 378.52 96.0465C381.809 89.6744 386.471 91.4115 389.269 95.5546C390.197 93.3562 392.79 91.6652 394.913 91.6729C397.028 91.6806 399.089 93.1948 399.997 95.4008C400.673 93.2486 402.597 91.7036 404.577 91.719C406.563 91.7267 408.467 93.2947 409.129 95.4546C409.866 93.2486 411.893 91.7036 413.94 91.7958C415.987 91.8881 417.728 92.9949 418.833 95.6929Z" fill="white"/>
    <path d="M378.527 96.4306C378.404 96.4306 378.295 96.3614 378.233 96.2461C377.039 94.0401 375.551 92.8256 373.927 92.7257C372.166 92.6258 370.303 93.8172 368.829 96.0079C368.733 96.1539 368.556 96.2 368.412 96.1308C368.262 96.054 368.187 95.8772 368.215 95.7004C369.491 88.6826 371.791 82.7717 375.046 78.1213C378.254 73.5401 381.721 71.1727 384.062 69.989C387.801 68.1058 391.951 67.3064 396.059 67.6907C400.243 68.0827 404.188 69.6815 407.47 72.3257C413.995 77.5756 418.151 85.8616 419.175 95.6466C419.195 95.8388 419.086 96.0155 418.922 96.0693C418.758 96.1232 418.588 96.0309 418.513 95.8541C417.544 93.479 416.042 92.2799 413.92 92.1877C412.016 92.0954 410.132 93.5328 409.449 95.5928C409.402 95.7465 409.272 95.8464 409.129 95.8464C408.985 95.8464 408.856 95.7388 408.808 95.5851C408.194 93.5789 406.419 92.1185 404.583 92.1108H404.563C402.734 92.1108 400.953 93.5482 400.332 95.539C400.284 95.685 400.161 95.7926 400.025 95.8003C399.881 95.8003 399.752 95.7158 399.697 95.5774C398.837 93.4944 396.919 92.08 394.926 92.0724H394.906C392.859 92.0724 390.436 93.7403 389.596 95.7311C389.542 95.8541 389.439 95.9387 389.317 95.9541C389.194 95.9694 389.078 95.9079 389.003 95.8003C387.399 93.4175 385.386 92.1262 383.495 92.2492C381.734 92.3721 380.124 93.7557 378.834 96.2538C378.772 96.3691 378.663 96.446 378.54 96.446L378.527 96.4306ZM373.715 91.9417C373.797 91.9417 373.879 91.9417 373.961 91.9417C375.183 92.0109 376.93 92.6642 378.52 95.3007C380.226 92.2953 382.123 91.542 383.447 91.4497C385.447 91.3114 387.528 92.5412 389.221 94.8395C390.34 92.8256 392.756 91.273 394.892 91.273H394.913C396.933 91.2806 398.885 92.5566 399.963 94.509C400.857 92.6181 402.679 91.3191 404.556 91.3191H404.577C406.44 91.3268 408.241 92.6258 409.136 94.5013C410.098 92.5797 412.016 91.3114 413.947 91.3959C415.742 91.4728 417.182 92.2876 418.24 93.8249C416.923 85.093 412.998 77.7293 407.061 72.9483C400.7 67.8291 391.78 66.9374 384.334 70.6884C380.84 72.4487 372.535 78.2212 369.177 94.3553C370.555 92.7949 372.146 91.934 373.708 91.934L373.715 91.9417Z" fill="black"/>
    <path d="M398.1 127.645C397.957 127.645 397.82 127.637 397.677 127.614C396.032 127.391 394.531 125.838 393.862 123.663C393.275 121.749 393.329 119.651 393.377 117.791L394.066 91.8102C394.066 91.595 394.23 91.4336 394.421 91.4336C394.612 91.4336 394.763 91.6181 394.756 91.8333L394.066 117.814C394.019 119.689 393.964 121.626 394.51 123.41C395.09 125.308 396.366 126.653 397.752 126.845C399.826 127.13 401.642 124.724 401.969 122.395C401.997 122.18 402.174 122.041 402.365 122.072C402.556 122.103 402.679 122.303 402.652 122.518C402.29 125.101 400.407 127.645 398.093 127.645H398.1Z" fill="black"/>
    <path d="M378.417 95.6529C378.417 95.6529 378.417 95.6529 378.41 95.6529C378.349 95.6529 378.301 95.5838 378.301 95.5146C379.454 78.3967 388.838 70.8485 394.332 67.8738C394.359 67.8585 394.393 67.8585 394.421 67.8738C406.739 72.8778 408.282 85.5375 409.408 94.7844C409.415 94.8535 409.374 94.9227 409.312 94.9304C409.251 94.9381 409.189 94.892 409.183 94.8228C408.07 85.6528 406.541 73.1007 394.393 68.1352C388.941 71.1022 379.679 78.5965 378.533 95.5376C378.533 95.6068 378.478 95.6606 378.417 95.6606V95.6529Z" fill="black"/>
    <path d="M389.064 95.7234C389.064 95.7234 389.064 95.7234 389.057 95.7234C388.996 95.7234 388.948 95.6542 388.955 95.585C389.589 86.6072 390.306 76.4379 394.223 67.8905C394.244 67.8443 394.285 67.8213 394.326 67.8213C394.374 67.8213 394.408 67.8443 394.428 67.8905C398.584 76.3533 399.39 86.4073 400.106 95.2853C400.106 95.3544 400.065 95.4159 400.004 95.4236C399.943 95.4236 399.881 95.3775 399.881 95.3083C399.178 86.538 398.38 76.5993 394.339 68.2287C390.531 76.6839 389.821 86.7301 389.194 95.6081C389.194 95.6773 389.139 95.7311 389.078 95.7311L389.064 95.7234Z" fill="black"/>
    <path d="M372.459 90.4947C372.459 90.4947 372.446 90.4947 372.439 90.4947C372.377 90.4871 372.33 90.4179 372.343 90.3487C372.582 88.5501 373.108 86.8436 373.906 85.2602C373.94 85.1987 374.008 85.1757 374.063 85.2141C374.118 85.2525 374.138 85.3294 374.104 85.3909C373.319 86.9436 372.8 88.6192 372.568 90.3871C372.562 90.4486 372.514 90.4947 372.452 90.4947H372.459Z" fill="black"/>
    <path d="M374.902 83.3318C374.902 83.3318 374.862 83.3318 374.848 83.3164C374.793 83.2857 374.773 83.2011 374.8 83.1396L375.38 81.9482C375.414 81.8867 375.483 81.8637 375.537 81.8944C375.592 81.9329 375.612 82.0097 375.585 82.0712L375.005 83.2626C374.984 83.3087 374.943 83.3318 374.902 83.3318Z" fill="black"/>
    <path d="M411.592 215.7C411.408 215.7 411.251 215.531 411.244 215.324C411.244 215.108 411.387 214.932 411.579 214.924L419.645 214.693C419.836 214.678 419.993 214.855 420 215.07C420 215.285 419.857 215.462 419.666 215.47L411.599 215.7H411.592Z" fill="black"/>
    <path d="M415.729 220.159C415.544 220.159 415.387 219.989 415.381 219.782L415.176 210.627C415.176 210.412 415.319 210.235 415.51 210.228C415.708 210.228 415.858 210.389 415.865 210.604L416.07 219.759C416.07 219.974 415.927 220.151 415.735 220.159H415.729Z" fill="black"/>
    <path d="M125.07 224.263C125.07 224.263 125.043 224.263 125.029 224.263C124.067 224.133 123.145 223.825 122.278 223.349C122.108 223.256 122.04 223.018 122.122 222.826C122.203 222.634 122.415 222.557 122.586 222.649C123.377 223.087 124.23 223.372 125.111 223.495C125.302 223.518 125.438 223.717 125.411 223.925C125.391 224.125 125.24 224.271 125.07 224.271V224.263ZM127.82 224.133C127.663 224.133 127.52 224.01 127.486 223.825C127.445 223.618 127.568 223.41 127.752 223.364C128.619 223.156 129.444 222.795 130.202 222.28C130.366 222.172 130.577 222.226 130.68 222.411C130.775 222.595 130.728 222.834 130.564 222.949C129.738 223.51 128.844 223.91 127.895 224.133C127.875 224.133 127.847 224.14 127.827 224.14L127.82 224.133ZM120.204 221.565C120.115 221.565 120.026 221.527 119.958 221.45C119.276 220.666 118.73 219.767 118.341 218.783C118.266 218.583 118.341 218.36 118.511 218.268C118.682 218.175 118.887 218.268 118.969 218.46C119.33 219.359 119.828 220.182 120.449 220.904C120.586 221.058 120.579 221.304 120.449 221.458C120.381 221.534 120.293 221.565 120.211 221.565H120.204ZM132.461 220.966C132.386 220.966 132.304 220.935 132.243 220.881C132.092 220.743 132.072 220.497 132.195 220.335C132.761 219.559 133.191 218.69 133.478 217.753C133.539 217.553 133.737 217.438 133.915 217.514C134.092 217.584 134.194 217.807 134.126 218.006C133.812 219.029 133.341 219.982 132.727 220.827C132.659 220.92 132.557 220.973 132.461 220.973V220.966ZM117.993 216C117.808 216 117.658 215.839 117.651 215.631C117.645 215.447 117.638 215.262 117.638 215.078C117.638 213.986 117.808 212.91 118.15 211.896C118.218 211.696 118.416 211.596 118.593 211.673C118.771 211.75 118.859 211.972 118.791 212.172C118.477 213.102 118.32 214.079 118.32 215.078C118.32 215.247 118.32 215.416 118.334 215.585C118.347 215.8 118.197 215.985 118.013 216C118.006 216 117.999 216 117.993 216ZM134.208 215.201C134.024 215.201 133.867 215.032 133.86 214.824C133.833 213.825 133.648 212.856 133.314 211.934C133.239 211.734 133.328 211.511 133.498 211.427C133.676 211.342 133.874 211.442 133.949 211.634C134.317 212.641 134.522 213.71 134.549 214.801C134.549 215.016 134.406 215.193 134.215 215.201C134.215 215.201 134.208 215.201 134.201 215.201H134.208ZM119.883 209.766C119.801 209.766 119.719 209.736 119.658 209.674C119.514 209.536 119.501 209.29 119.624 209.128C120.252 208.314 121.002 207.622 121.849 207.084C122.012 206.976 122.224 207.045 122.319 207.23C122.415 207.414 122.354 207.653 122.19 207.76C121.412 208.252 120.729 208.882 120.149 209.636C120.081 209.728 119.985 209.766 119.89 209.766H119.883ZM132.147 209.567C132.051 209.567 131.963 209.528 131.895 209.444C131.294 208.713 130.591 208.106 129.806 207.637C129.636 207.537 129.574 207.299 129.663 207.115C129.752 206.922 129.963 206.853 130.127 206.953C130.987 207.46 131.751 208.122 132.4 208.921C132.529 209.082 132.522 209.328 132.379 209.474C132.311 209.544 132.229 209.574 132.147 209.574V209.567ZM124.599 206.753C124.435 206.753 124.292 206.623 124.258 206.43C124.224 206.215 124.346 206.015 124.537 205.977C125.043 205.877 125.568 205.823 126.087 205.823C126.523 205.823 126.967 205.862 127.397 205.931C127.588 205.962 127.718 206.161 127.69 206.377C127.663 206.592 127.486 206.738 127.295 206.707C126.899 206.638 126.489 206.6 126.087 206.607C125.609 206.607 125.124 206.653 124.66 206.753C124.64 206.753 124.619 206.753 124.599 206.753Z" fill="black"/>
    <path d="M208.774 39.7424C208.603 39.7424 208.453 39.5963 208.433 39.4042C208.412 39.1889 208.542 38.9968 208.733 38.966C209.62 38.8431 210.487 38.5894 211.313 38.2128C211.49 38.1282 211.688 38.2281 211.763 38.428C211.838 38.6278 211.75 38.8507 211.572 38.9353C210.692 39.335 209.764 39.6117 208.815 39.7424C208.801 39.7424 208.788 39.7424 208.774 39.7424ZM206.017 39.7347C206.017 39.7347 205.99 39.7347 205.969 39.7347C205.02 39.5963 204.099 39.3196 203.219 38.9122C203.041 38.8277 202.959 38.6048 203.028 38.4049C203.103 38.2051 203.301 38.1128 203.478 38.1897C204.297 38.574 205.171 38.8277 206.058 38.966C206.249 38.9968 206.379 39.1889 206.358 39.4042C206.338 39.5963 206.187 39.7424 206.017 39.7424V39.7347ZM213.838 37.4287C213.736 37.4287 213.633 37.3749 213.565 37.275C213.449 37.1059 213.476 36.8599 213.633 36.7293C214.35 36.122 214.985 35.4072 215.524 34.6155C215.64 34.4464 215.858 34.4156 216.008 34.5463C216.158 34.677 216.186 34.9229 216.07 35.092C215.49 35.9375 214.814 36.6985 214.05 37.3519C213.988 37.4057 213.913 37.4287 213.838 37.4287ZM200.967 37.3903C200.892 37.3903 200.816 37.3672 200.755 37.3134C199.997 36.6601 199.322 35.8914 198.749 35.0382C198.633 34.8691 198.667 34.6232 198.817 34.4925C198.967 34.3618 199.185 34.4002 199.301 34.5694C199.841 35.3687 200.468 36.0836 201.178 36.6985C201.328 36.8292 201.356 37.0752 201.24 37.2443C201.171 37.3442 201.069 37.398 200.967 37.398V37.3903ZM217.155 32.5478C217.114 32.5478 217.066 32.5401 217.025 32.517C216.848 32.4402 216.759 32.2096 216.834 32.0097C217.162 31.0797 217.373 30.0958 217.455 29.0965C217.476 28.8813 217.639 28.7276 217.83 28.743C218.022 28.766 218.158 28.9505 218.144 29.1657C218.056 30.2341 217.83 31.2872 217.476 32.2865C217.421 32.4402 217.291 32.5324 217.155 32.5324V32.5478ZM197.684 32.4863C197.547 32.4863 197.418 32.3941 197.363 32.2403C197.015 31.2411 196.797 30.188 196.715 29.1119C196.701 28.8967 196.838 28.7122 197.029 28.6892C197.213 28.6661 197.384 28.8275 197.404 29.0427C197.486 30.042 197.684 31.0259 198.011 31.9559C198.08 32.1558 197.991 32.3787 197.814 32.4632C197.773 32.4786 197.732 32.4863 197.691 32.4863H197.684ZM197.015 28.4739C196.824 28.4739 196.667 28.2971 196.667 28.0819C196.667 26.9981 196.803 25.9297 197.063 24.8997C197.117 24.6922 197.309 24.5769 197.493 24.6307C197.677 24.6922 197.779 24.9074 197.732 25.1149C197.486 26.0757 197.363 27.075 197.363 28.0819C197.363 28.2971 197.206 28.4739 197.015 28.4739ZM217.673 26.437C217.51 26.437 217.366 26.3063 217.332 26.1219C217.168 25.138 216.882 24.1848 216.479 23.2855C216.39 23.0934 216.465 22.8628 216.629 22.7628C216.8 22.6629 217.005 22.7475 217.093 22.932C217.523 23.8928 217.83 24.9228 218.008 25.9758C218.042 26.1833 217.919 26.3909 217.735 26.4293C217.714 26.4293 217.694 26.4293 217.673 26.4293V26.437ZM198.523 22.5707C198.462 22.5707 198.394 22.5476 198.339 22.5092C198.175 22.3939 198.128 22.1556 198.23 21.9711C198.735 21.0641 199.349 20.234 200.059 19.5114C200.202 19.3654 200.421 19.3808 200.55 19.5345C200.68 19.6959 200.666 19.9419 200.53 20.0879C199.868 20.772 199.295 21.5407 198.824 22.3862C198.755 22.5015 198.646 22.5707 198.53 22.5707H198.523ZM215.23 20.9411C215.135 20.9411 215.046 20.895 214.978 20.8182C214.377 20.0802 213.695 19.4269 212.937 18.8888C212.773 18.7735 212.726 18.5353 212.828 18.3508C212.93 18.1663 213.142 18.1125 213.306 18.2278C214.111 18.8043 214.848 19.4961 215.49 20.2878C215.619 20.4492 215.606 20.6952 215.469 20.8412C215.401 20.9104 215.319 20.9411 215.237 20.9411H215.23ZM202.557 18.42C202.434 18.42 202.311 18.3431 202.25 18.2124C202.161 18.0203 202.229 17.7897 202.4 17.6897C203.246 17.1978 204.147 16.8365 205.082 16.6059C205.273 16.5598 205.45 16.6905 205.491 16.9057C205.532 17.1133 205.416 17.3208 205.225 17.3669C204.352 17.5821 203.505 17.9203 202.714 18.3815C202.666 18.4123 202.611 18.4276 202.557 18.4276V18.42ZM210.617 17.6436C210.617 17.6436 210.548 17.6436 210.514 17.6283C209.668 17.3285 208.781 17.1594 207.887 17.1132C207.696 17.1056 207.546 16.9211 207.559 16.7059C207.566 16.4906 207.723 16.3215 207.921 16.3369C208.876 16.383 209.818 16.5675 210.726 16.8827C210.91 16.9441 211.013 17.1671 210.951 17.3669C210.903 17.536 210.767 17.6436 210.624 17.6436H210.617Z" fill="black"/>
    <path d="M106.5 32.9124C106.5 32.9124 106.496 32.9057 106.493 32.8991L99.5985 17.9767C99.5091 17.7866 99.5774 17.547 99.7513 17.4515C99.9218 17.3494 100.135 17.4236 100.218 17.6176L107.113 32.5399C107.202 32.7301 107.134 32.9697 106.96 33.0652C106.796 33.1634 106.592 33.092 106.5 32.9124Z" fill="black"/>
    <path d="M94.2778 27.3774C94.2235 27.2712 94.2134 27.1273 94.272 27.0094C94.3578 26.8206 94.5684 26.7364 94.7391 26.8375C97.2286 28.233 99.4878 30.062 101.459 32.2736C101.592 32.4257 101.592 32.6737 101.456 32.8249C101.319 32.9761 101.098 32.9784 100.965 32.8263C99.0546 30.6722 96.8531 28.8941 94.4298 27.5351C94.3636 27.4986 94.3211 27.4466 94.2872 27.3802L94.2778 27.3774Z" fill="black"/>
    <path d="M109.074 27.7033C109.05 27.6568 109.039 27.6026 109.033 27.5445C108.863 25.2748 108.856 22.969 109.017 20.6958C109.034 20.4811 109.198 20.3212 109.389 20.3382C109.58 20.3552 109.721 20.5377 109.704 20.7524C109.547 22.9874 109.554 25.2484 109.719 27.4772C109.733 27.6896 109.592 27.8789 109.403 27.8961C109.265 27.9062 109.139 27.8293 109.074 27.7033Z" fill="black"/>
    <path d="M127.103 76.3166L151.458 50.2773L148.399 43.4182L92.9887 76.8496L95.7765 82.9618L127.103 76.3166Z" fill="white"/>
    <path d="M95.4735 83.1601L95.4668 83.1469L92.6848 77.0304C92.5962 76.8418 92.6673 76.6105 92.8306 76.513L148.243 43.0788C148.326 43.0248 148.417 43.0181 148.51 43.0455C148.597 43.0768 148.671 43.1433 148.712 43.2395L151.775 50.1058C151.843 50.2549 151.813 50.442 151.7 50.5599L127.339 76.5946C127.287 76.6464 127.228 76.685 127.161 76.6934L95.8276 83.343C95.6856 83.374 95.5385 83.3026 95.4642 83.1574L95.4735 83.1601ZM93.4532 77.0048L95.9651 82.5317L126.942 75.9562L151.04 50.1974L148.252 43.9445L93.4532 77.0048Z" fill="black"/>
    <path d="M115.31 50.1135L122.99 35.7121L117.117 32.4644L111.055 41.0484L101.538 41.8084L100.938 48.8919L115.31 50.1135Z" fill="white"/>
    <path d="M100.635 49.0898C100.602 49.0237 100.582 48.9393 100.591 48.8632L101.191 41.7792C101.206 41.5928 101.343 41.4421 101.516 41.4259L110.881 40.677L116.845 32.2265C116.945 32.0819 117.13 32.0409 117.271 32.1162L123.139 35.3681C123.227 35.4165 123.286 35.5013 123.316 35.6055C123.346 35.7097 123.329 35.8172 123.282 35.9099L115.601 50.3123C115.53 50.4376 115.403 50.5122 115.27 50.5013L100.899 49.2797C100.806 49.2693 100.722 49.2275 100.662 49.1427C100.652 49.1229 100.642 49.103 100.632 49.0832L100.635 49.0898ZM101.852 42.1764L101.312 48.5425L115.122 49.7163L122.501 35.8817L117.217 32.9538L111.333 41.2989C111.273 41.3823 111.184 41.4403 111.083 41.4443L101.862 42.1792L101.852 42.1764Z" fill="black"/>
    <path d="M110.306 37.3445C112.021 37.0599 113.739 38.1476 114.885 39.6428C116.249 41.422 116.027 40.7866 127.721 62.3699C131.467 69.2881 139.005 80.666 135.986 91.8433C135.845 92.3605 135.651 92.9128 135.222 93.1477C134.847 93.3476 134.406 93.2456 134.006 93.1163C125.974 90.5337 122.749 80.4219 119.04 71.6974C114.742 61.5852 111.414 52.143 108.573 44.6169C106.671 39.5633 109.227 37.5341 110.304 37.355L110.306 37.3445Z" fill="white"/>
    <path d="M123.596 83.0416C122.29 80.4892 121.152 77.7211 120.028 74.9796C119.602 73.9454 119.169 72.8807 118.731 71.8542C115.423 64.0664 112.709 56.7417 110.314 50.2729C109.592 48.3329 108.918 46.5031 108.264 44.7581C107.144 41.7921 107.556 39.8929 108.091 38.826C108.663 37.6909 109.602 37.0703 110.267 36.9559C111.929 36.6786 113.799 37.6137 115.156 39.3795L115.349 39.6343C116.544 41.1775 116.902 41.6443 128.023 62.1547C128.432 62.9074 128.884 63.7121 129.359 64.5634C133.222 71.4313 139.059 81.8161 136.321 91.9412C136.156 92.536 135.918 93.1881 135.369 93.4835C134.902 93.7351 134.386 93.6282 133.908 93.4702C129.167 91.9425 126.084 87.8898 123.598 83.031L123.596 83.0416ZM131.498 70.0028C130.569 68.1882 129.62 66.5029 128.77 64.9825C128.292 64.1246 127.831 63.3171 127.428 62.5605C116.344 42.106 115.989 41.6459 114.824 40.1453L114.627 39.8839C113.687 38.653 112.071 37.4372 110.362 37.7178C110.018 37.7742 109.221 38.1603 108.694 39.1956C108.231 40.1089 107.893 41.7646 108.904 44.4387C109.558 46.1837 110.241 48.0162 110.957 49.9602C113.349 56.4223 116.059 63.7403 119.363 71.5044C119.804 72.5375 120.238 73.6022 120.663 74.6364C123.865 82.4322 127.177 90.4922 134.111 92.7173C134.461 92.8261 134.821 92.91 135.079 92.7772C135.385 92.6134 135.544 92.1466 135.658 91.7175C137.705 84.1259 134.72 76.2867 131.503 69.9989L131.498 70.0028Z" fill="black"/>
    <path d="M133.853 79.8447C135.049 82.6023 133.309 84.7079 132.005 85.4975C130.507 86.4044 128.807 85.802 127.678 84.6769C127.309 84.3094 126.974 83.8568 126.874 83.3047C126.777 82.7591 126.988 82.1188 127.449 81.9235C127.905 81.7319 128.393 82.022 128.872 82.1069C129.545 82.2324 130.683 81.7812 131.116 81.1897C131.466 80.7141 131.617 79.5564 132.214 79.2378C133.142 78.7471 133.667 79.419 133.849 79.8381L133.853 79.8447Z" fill="black"/>
    <path d="M142.709 49.7864C142.679 49.7271 142.699 49.6437 142.756 49.6156L147.237 46.927C147.29 46.8923 147.368 46.9208 147.389 46.9773C147.419 47.0365 147.399 47.12 147.342 47.148L142.861 49.8367C142.808 49.8713 142.739 49.8456 142.709 49.7864Z" fill="black"/>
    <path d="M146.328 50.3872C146.298 50.3279 146.318 50.2444 146.371 50.2098L148.258 48.9815C148.311 48.9468 148.385 48.9687 148.419 49.0345C148.449 49.0938 148.429 49.1773 148.376 49.2119L146.489 50.4402C146.436 50.4749 146.362 50.453 146.328 50.3872Z" fill="black"/>
    <path d="M95.5478 77.6513L95.541 77.6381C95.5166 77.575 95.5462 77.4942 95.6062 77.4727C96.9202 76.8805 98.2182 76.2108 99.4765 75.4791C99.5298 75.4444 99.6041 75.4663 99.6319 75.536C99.6623 75.5953 99.6385 75.6723 99.5794 75.7108C98.3151 76.4463 97.0078 77.1133 95.6879 77.7094C95.6372 77.7336 95.5781 77.7106 95.5478 77.6513Z" fill="black"/>
    <path d="M252.336 34.0762C253.531 34.0762 254.5 32.9956 254.5 31.6626C254.5 30.3296 253.531 29.249 252.336 29.249C251.141 29.249 250.173 30.3296 250.173 31.6626C250.173 32.9956 251.141 34.0762 252.336 34.0762Z" fill="black"/>
    <path d="M140.978 25.4444C140.978 23.4689 142.397 21.8701 144.144 21.8701C145.891 21.8701 147.311 23.4689 147.311 25.4444C147.311 27.4198 145.891 29.0186 144.144 29.0186C142.397 29.0186 140.978 27.4198 140.978 25.4444Z" fill="black"/>
    <path d="M98.0568 197.877C98.0568 197.877 86.4479 200.929 84.2094 200.399C81.0018 199.638 78.4698 198.869 75.2759 200.045C73.6311 200.652 71.5496 202.12 70.0618 203.15C67.093 205.195 67.2841 204.857 65.3118 205.641C62.8617 204.872 60.0158 203.911 57.75 202.397C54.829 200.46 51.9012 198.17 51.0345 197.601C48.7482 196.079 48.1271 197.501 47.1785 198.377C45.9705 197.47 42.9949 197.447 43.2611 200.122C43.343 200.929 42.3466 200.568 42.2579 202.22C42.1077 204.987 47.6289 211.46 52.1264 215.457C56.385 217.862 63.4691 222.159 69.5499 223.681C72.3617 224.381 83.7317 218.654 90.884 215.81C95.0744 214.142 93.9961 215.349 97.1286 214.703C98.5959 213.074 98.0568 197.862 98.0568 197.862V197.877Z" fill="white"/>
    <path d="M70.0888 224.134C69.8568 224.134 69.6521 224.111 69.4746 224.073C64.0285 222.712 57.6883 219.084 53.4911 216.686C52.952 216.379 52.4401 216.087 51.9692 215.818C51.9487 215.802 51.9283 215.795 51.9078 215.772C47.656 211.99 41.7458 205.279 41.9096 202.205C41.971 201.067 42.4283 200.698 42.7285 200.452C42.9333 200.291 42.9265 200.275 42.9196 200.168C42.79 198.869 43.3359 198.2 43.8205 197.87C44.7691 197.216 46.2296 197.362 47.1441 197.9C47.226 197.816 47.3011 197.731 47.383 197.647C48.1337 196.84 49.0687 195.84 51.2117 197.262C51.5256 197.47 52.0921 197.893 52.8155 198.423C54.1736 199.43 56.0367 200.806 57.9204 202.059C60.0428 203.465 62.7113 204.419 65.2911 205.226C65.6732 205.072 65.9667 204.972 66.226 204.872C67.2088 204.518 67.5773 204.38 69.8704 202.804L70.1366 202.62C71.5834 201.621 73.5694 200.252 75.1596 199.661C78.1966 198.538 80.6808 199.138 83.554 199.83C83.7929 199.883 84.0317 199.945 84.2706 199.999C85.9768 200.398 93.9753 198.531 97.9678 197.478C98.0702 197.455 98.1725 197.478 98.2544 197.547C98.3363 197.616 98.3841 197.724 98.3909 197.839C98.4455 199.415 98.896 213.273 97.3604 214.972C97.3126 215.026 97.2512 215.064 97.183 215.08C95.8931 215.349 95.2925 215.31 94.7602 215.28C94.0231 215.233 93.443 215.195 90.9861 216.171C89.0001 216.963 86.7275 217.955 84.3252 219.008C78.5856 221.521 72.6618 224.111 70.082 224.111L70.0888 224.134ZM52.3173 215.134C52.7814 215.395 53.2796 215.679 53.8119 215.987C57.975 218.37 64.2673 221.975 69.6316 223.312C71.5561 223.796 78.2171 220.875 84.0932 218.3C86.5023 217.247 88.7817 216.248 90.7745 215.456C93.3611 214.426 94.0026 214.465 94.8148 214.519C95.2925 214.549 95.8248 214.58 96.9577 214.357C97.8654 212.974 97.92 204.08 97.7358 198.362C95.6201 198.907 86.2156 201.267 84.1478 200.775C83.9021 200.714 83.6632 200.66 83.4243 200.606C80.5307 199.907 78.2512 199.361 75.3916 200.414C73.8766 200.975 71.9383 202.312 70.5188 203.296L70.2526 203.481C67.8913 205.11 67.475 205.256 66.4581 205.625C66.1783 205.725 65.8575 205.841 65.4344 206.01C65.3661 206.033 65.2979 206.04 65.2296 206.017C62.568 205.187 59.804 204.211 57.586 202.735C55.6887 201.475 53.8187 200.091 52.4469 199.084C51.7304 198.554 51.1639 198.139 50.8704 197.939C49.1779 196.817 48.5978 197.431 47.8676 198.216C47.7242 198.369 47.5673 198.538 47.4035 198.684C47.2875 198.792 47.1168 198.8 46.994 198.707C46.3047 198.192 44.9602 198.008 44.1822 198.538C43.7318 198.846 43.5407 199.368 43.6089 200.083C43.6635 200.652 43.3632 200.906 43.138 201.083C42.8855 201.29 42.6467 201.482 42.6057 202.251C42.476 204.672 47.5195 210.86 52.3173 215.134Z" fill="black"/>
    <path d="M62.8278 213.327C61.3059 213.327 60.0774 212.881 59.1493 211.521C58.1597 210.068 58.849 208.777 59.6543 207.708C60.2549 206.909 62.275 206.217 64.8479 205.387C65.7488 205.095 66.52 204.849 66.8817 204.672C67.0591 204.588 67.257 204.672 67.3321 204.88C67.4072 205.079 67.3321 205.302 67.1478 205.387C66.7452 205.579 65.9467 205.84 65.0322 206.133C63.2987 206.686 60.6848 207.532 60.173 208.208C59.238 209.453 59.1083 210.199 59.6884 211.044C61.1216 213.135 63.4761 212.651 67.0523 211.921C69.2703 211.467 72.0275 210.898 75.1873 210.898C75.3784 210.898 75.5354 211.075 75.5354 211.29C75.5354 211.505 75.3784 211.682 75.1873 211.682C72.0957 211.682 69.4819 212.22 67.182 212.697C65.5235 213.035 64.0699 213.335 62.821 213.335L62.8278 213.327Z" fill="black"/>
    <path d="M60.2414 212.55C60.1936 212.55 60.139 212.535 60.0913 212.511C55.9077 210.206 52.0995 207.446 49.0762 204.517C48.9055 204.356 48.7076 204.149 48.4892 203.918C47.2335 202.619 44.9063 200.213 43.2683 200.943C43.0909 201.02 42.893 200.928 42.8179 200.728C42.7496 200.528 42.8315 200.305 43.009 200.221C45.0496 199.314 47.4928 201.843 48.9533 203.349C49.1717 203.572 49.3628 203.772 49.5266 203.933C52.509 206.816 56.2694 209.544 60.3984 211.82C60.569 211.912 60.644 212.15 60.5553 212.342C60.4939 212.481 60.3711 212.558 60.2414 212.558V212.55Z" fill="black"/>
    <path d="M60.2417 207.962C60.2417 207.962 60.1871 207.962 60.1598 207.955C56.8294 207.048 53.3488 204.012 50.5575 201.567C49.1311 200.322 47.9026 199.246 46.9472 198.669C46.7766 198.57 46.7151 198.331 46.8107 198.139C46.8994 197.947 47.111 197.878 47.2816 197.985C48.2848 198.593 49.5338 199.692 50.9874 200.952C53.731 203.351 57.1501 206.333 60.3305 207.201C60.5147 207.255 60.6307 207.463 60.583 207.67C60.542 207.847 60.4055 207.97 60.2486 207.97L60.2417 207.962Z" fill="black"/>
    <path d="M95.0953 212.112C95.0953 212.112 95.0816 212.112 95.0748 212.112C95.0133 212.097 94.9724 212.028 94.986 211.958C95.4299 209.453 95.5801 206.885 95.4504 204.333C95.4504 204.264 95.4982 204.203 95.5596 204.195C95.6211 204.187 95.6757 204.249 95.6826 204.318C95.8191 206.893 95.6621 209.483 95.2182 212.012C95.2045 212.074 95.1567 212.12 95.1021 212.12L95.0953 212.112Z" fill="black"/>
    <path d="M92.7136 212.29C92.7136 212.29 92.6863 212.29 92.6727 212.29C92.6112 212.267 92.5839 212.19 92.6044 212.128C92.8707 211.252 93.0073 210.337 93.0073 209.415C93.0073 209.346 93.0619 209.284 93.1234 209.284C93.1848 209.284 93.2395 209.346 93.2395 209.415C93.2395 210.368 93.096 211.313 92.8229 212.213C92.8092 212.267 92.7614 212.297 92.7136 212.297V212.29Z" fill="black"/>
    <path d="M60.371 188.938L81.1591 188.753V171.482H87.7927L70.5535 152.25L52.6182 171.313H60.2891L60.371 188.938Z" fill="white"/>
    <path d="M60.3709 189.322C60.2822 189.322 60.1935 189.284 60.1253 189.207C60.057 189.138 60.0229 189.038 60.0229 188.93L59.941 171.697H52.6112C52.4679 171.697 52.3451 171.597 52.2905 171.451C52.2359 171.305 52.27 171.136 52.3724 171.021L70.3077 151.958C70.4442 151.812 70.6558 151.82 70.7855 151.958L88.0247 171.19C88.1271 171.298 88.1544 171.467 88.0998 171.613C88.0452 171.759 87.9223 171.851 87.779 171.851H81.4934V188.731C81.4934 188.946 81.3433 189.115 81.1522 189.123L60.3641 189.307L60.3709 189.322ZM53.4848 170.921H60.289C60.4801 170.921 60.6303 171.098 60.6371 171.305L60.719 188.538L80.811 188.362V171.482C80.811 171.267 80.9679 171.09 81.159 171.09H86.9532L70.5466 152.788L53.4848 170.921Z" fill="black"/>
    <path d="M73.5499 173.765H67.6875V180.829H73.5499V173.765Z" fill="#00812A"/>
    <path d="M73.5494 181.212H67.6869C67.4958 181.212 67.3389 181.035 67.3389 180.82V173.756C67.3389 173.541 67.4958 173.364 67.6869 173.364H73.5494C73.7405 173.364 73.8974 173.541 73.8974 173.756V180.82C73.8974 181.035 73.7405 181.212 73.5494 181.212ZM68.035 180.436H73.2081V174.156H68.035V180.436Z" fill="black"/>
</svg>
