<svg width="433" height="415" viewBox="0 0 433 415" fill="none" xmlns="http://www.w3.org/2000/svg">
    <g clip-path="url(#clip0_139_3891)">
        <path d="M22.0299 161.87C22.0299 161.87 -18.4501 222.92 10.3299 315C39.1099 407.08 122.77 430.57 172.41 404.97C222.05 379.37 229.29 346.13 269.37 321.97C309.45 297.82 392.21 298.67 424.07 232.23C455.93 165.79 389.87 72.6603 315.03 19.0403C240.2 -34.5897 77.7499 28.8603 22.0299 161.87Z" fill="#00812A"/>
        <path opacity="0.7" d="M22.0299 161.87C22.0299 161.87 -18.4501 222.92 10.3299 315C39.1099 407.08 122.77 430.57 172.41 404.97C222.05 379.37 229.29 346.13 269.37 321.97C309.45 297.82 392.21 298.67 424.07 232.23C455.93 165.79 389.87 72.6603 315.03 19.0403C240.2 -34.5897 77.7499 28.8603 22.0299 161.87Z" fill="white"/>
        <path d="M279.38 293.601C282.95 295.161 291.69 294.961 291.69 294.961C291.78 294.961 289.81 289.241 289.65 288.901C287.73 284.891 281.67 278.271 276.74 278.941C273.19 279.421 271.21 282.981 272.01 286.321C272.83 289.741 276.33 292.271 279.38 293.601Z" fill="black"/>
        <path d="M282.4 318.9C286.1 319.44 293.9 317.18 294.52 317C295.75 321.36 297.37 325.74 299.25 330.08C300.32 332.56 301.48 335.03 302.67 337.49C301.96 336.45 301.31 335.52 301.21 335.4C298.3 332.04 290.71 327.25 286.13 329.2C282.83 330.6 281.86 334.55 283.52 337.57C285.21 340.65 289.26 342.17 292.55 342.65C295.88 343.14 302.57 341.34 304.33 340.84C304.8 341.78 305.25 342.72 305.72 343.66C307.98 348.16 310.25 352.63 312.34 357.09C313.08 358.66 313.75 360.23 314.42 361.81C313.79 360.88 313.25 360.11 313.15 360C310.24 356.64 302.65 351.85 298.07 353.8C294.77 355.2 293.8 359.15 295.46 362.17C297.15 365.25 301.2 366.77 304.49 367.25C307.67 367.71 313.86 366.11 315.95 365.53C316.59 367.16 317.24 368.79 317.79 370.4C318.14 371.51 318.56 372.55 318.85 373.68C319.16 374.79 319.47 375.9 319.77 376.99C320.28 379.12 320.82 381.31 321.26 383.39C321.58 384.84 321.86 386.23 322.15 387.62C321.43 386.05 319.96 383 319.81 382.76C317.45 379 310.66 373.12 305.84 374.35C302.37 375.24 300.81 378.99 301.99 382.22C303.2 385.52 306.97 387.64 310.14 388.61C313.63 389.68 321.37 388.7 322.34 388.57C322.8 390.88 323.23 393.14 323.6 395.27C323.8 396.4 323.97 397.46 324.15 398.53H327.23C327 397.3 326.77 396.05 326.5 394.73C326.04 392.38 325.5 389.88 324.92 387.32C325.5 387.09 328.8 385.75 331.73 384.12C334.28 386.88 340.8 390.11 341.65 390.52C340.76 392.7 339.88 394.82 339.01 396.8C338.75 397.4 338.5 397.96 338.24 398.53H341.48C341.56 398.33 341.64 398.15 341.72 397.95C342.63 395.74 343.56 393.35 344.49 390.89C345.43 391.09 353.09 392.64 356.66 391.84C359.9 391.11 363.82 389.28 365.27 386.08C366.69 382.95 365.42 379.08 362.02 377.94C357.3 376.36 350.1 381.71 347.46 385.29C347.3 385.5 345.87 387.98 344.99 389.56C345.37 388.55 345.74 387.58 346.11 386.54C346.86 384.49 347.55 382.42 348.31 380.19C348.64 379.1 348.96 378 349.3 376.9C349.65 375.81 349.89 374.61 350.19 373.45C350.83 370.76 351.35 367.99 351.81 365.2C353.61 365.85 360.03 368.09 363.36 367.85C366.67 367.62 370.82 366.4 372.74 363.46C374.62 360.58 373.95 356.56 370.76 354.92C366.34 352.64 358.41 356.84 355.26 359.98C355.06 360.17 353.06 362.68 351.98 364.07C352.24 362.39 352.52 360.71 352.73 359C353.34 354.07 353.81 349.05 354.3 344.05C354.45 342.52 354.62 340.99 354.78 339.47C355.42 339.71 362.99 342.53 366.72 342.27C370.03 342.04 374.19 340.82 376.1 337.88C377.98 335 377.31 330.99 374.12 329.34C369.7 327.06 361.77 331.26 358.62 334.4C358.38 334.64 355.5 338.24 354.81 339.2C355.17 335.84 355.55 332.49 356.06 329.21C356.76 324.68 357.7 320.27 358.93 316.07C359.23 316.18 367.12 319.16 370.93 318.89C374.24 318.66 378.39 317.44 380.31 314.5C382.19 311.62 381.52 307.61 378.33 305.96C373.91 303.68 365.98 307.88 362.83 311.02C362.58 311.27 359.48 315.15 358.97 315.89C359.04 315.64 359.09 315.37 359.17 315.12C360.54 310.65 362.42 306.49 364.38 302.68C365.51 300.46 366.72 298.41 367.94 296.44C369.35 297.15 375.85 300.3 379.31 300.44C382.63 300.57 386.89 299.82 389.12 297.1C391.3 294.44 391.08 290.38 388.09 288.4C383.94 285.65 375.6 288.96 372.13 291.73C371.94 291.88 370.19 293.62 368.93 294.91C369.49 294.03 370.06 293.11 370.61 292.27C372.69 289.13 374.79 286.39 376.67 283.98C377.75 282.62 378.75 281.4 379.7 280.28C381.45 280.25 388.49 280.04 391.57 278.59C394.57 277.18 398.01 274.55 398.74 271.11C399.45 267.74 397.38 264.24 393.82 263.86C388.87 263.33 382.99 270.11 381.18 274.17C381.02 274.52 379.21 280.29 379.3 280.29C379.3 280.29 379.38 280.29 379.41 280.29C378.47 281.35 377.48 282.5 376.42 283.78C374.48 286.16 372.32 288.86 370.16 291.96C368 295.06 365.73 298.48 363.67 302.3C361.6 306.13 359.62 310.26 358.13 314.78C358.11 314.83 358.1 314.89 358.08 314.94C358.11 313.48 358.04 309.4 358 309.09C357.43 304.68 353.74 296.5 348.84 295.6C345.31 294.95 342.33 297.71 342.05 301.14C341.76 304.64 344.3 308.15 346.78 310.36C349.57 312.85 357.32 315.27 357.94 315.46C356.56 319.78 355.49 324.32 354.67 328.98C354.2 331.64 353.8 334.34 353.44 337.05C353.42 335.79 353.4 334.66 353.37 334.5C352.8 330.09 349.11 321.91 344.21 321.01C340.68 320.36 337.7 323.12 337.42 326.55C337.13 330.05 339.67 333.56 342.15 335.77C344.66 338.01 351.23 340.21 352.97 340.76C352.84 341.8 352.7 342.84 352.58 343.88C351.98 348.87 351.41 353.86 350.7 358.73C350.45 360.45 350.14 362.13 349.84 363.81C349.82 362.69 349.8 361.75 349.78 361.6C349.21 357.19 345.52 349.01 340.62 348.11C337.09 347.46 334.11 350.22 333.83 353.65C333.54 357.15 336.08 360.66 338.56 362.87C340.96 365.01 347 367.09 349.07 367.76C348.71 369.48 348.35 371.19 347.92 372.84C347.6 373.96 347.37 375.05 346.99 376.16C346.63 377.26 346.28 378.35 345.93 379.43C345.18 381.48 344.42 383.61 343.64 385.6C343.11 386.99 342.58 388.3 342.04 389.62C342.31 387.91 342.77 384.56 342.77 384.28C342.84 381.33 341.79 376.53 339.7 373.16C339.71 372.72 339.69 372.29 339.62 371.86C339.07 368.46 335.88 365.94 332.42 366.86C327.61 368.14 324.56 376.58 324.33 381.02C324.32 381.28 324.49 384.14 324.63 385.94C324.39 384.89 324.17 383.88 323.9 382.8C323.4 380.67 322.83 378.57 322.23 376.29C321.9 375.2 321.57 374.11 321.23 373C320.92 371.9 320.45 370.77 320.07 369.64C319.12 367.04 318.03 364.45 316.87 361.87C318.73 361.42 325.32 359.74 327.96 357.71C330.59 355.69 333.39 352.38 333.36 348.87C333.34 345.43 330.56 342.45 327 342.84C322.05 343.38 317.76 351.26 316.86 355.61C316.8 355.88 316.51 359.08 316.38 360.84C315.67 359.29 314.97 357.74 314.21 356.2C312 351.75 309.62 347.31 307.27 342.87C306.55 341.51 305.85 340.15 305.14 338.79C305.8 338.64 313.68 336.81 316.64 334.54C319.27 332.52 322.07 329.21 322.04 325.7C322.02 322.26 319.24 319.28 315.68 319.67C310.73 320.21 306.44 328.09 305.54 332.44C305.47 332.77 305.06 337.37 305.01 338.54C303.45 335.54 301.93 332.54 300.54 329.51C298.63 325.34 296.98 321.15 295.68 316.97C295.99 316.9 304.21 315.03 307.25 312.7C309.88 310.68 312.68 307.37 312.65 303.86C312.63 300.42 309.85 297.44 306.29 297.83C301.34 298.37 297.05 306.25 296.15 310.6C296.08 310.94 295.64 315.89 295.62 316.79C295.54 316.54 295.44 316.29 295.36 316.04C294.03 311.56 293.31 307.05 292.84 302.79C292.56 300.32 292.44 297.94 292.36 295.63C293.93 295.44 301.08 294.49 304.04 292.69C306.88 290.97 310.02 287.99 310.38 284.5C310.73 281.08 308.31 277.81 304.72 277.81C299.74 277.81 294.61 285.16 293.24 289.39C293.17 289.62 292.67 292.04 292.33 293.81C292.31 292.76 292.28 291.68 292.28 290.68C292.28 286.92 292.52 283.47 292.76 280.42C292.91 278.69 293.08 277.12 293.25 275.66C294.69 274.67 300.45 270.61 302.22 267.7C303.95 264.87 305.36 260.78 304.07 257.51C302.81 254.31 299.15 252.53 295.96 254.18C291.54 256.47 290.38 265.37 291.11 269.75C291.17 270.13 292.84 275.94 292.92 275.89C292.92 275.89 292.99 275.84 293.01 275.83C292.81 277.23 292.62 278.74 292.45 280.39C292.15 283.44 291.83 286.89 291.75 290.67C291.65 294.44 291.65 298.55 292.04 302.87C292.42 307.2 293.05 311.74 294.3 316.34C294.31 316.39 294.34 316.44 294.35 316.5C293.57 315.27 291.26 311.9 291.06 311.67C288.15 308.31 280.56 303.52 275.98 305.47C272.68 306.87 271.71 310.82 273.37 313.84C275.06 316.92 279.11 318.44 282.4 318.92V318.9Z" fill="black"/>
        <path d="M367.74 295.521C367.82 295.571 369.33 289.711 369.38 289.331C369.99 284.931 368.59 276.061 364.11 273.901C360.88 272.341 357.27 274.221 356.1 277.451C354.9 280.751 356.42 284.801 358.23 287.591C360.35 290.861 367.74 295.521 367.75 295.521H367.74Z" fill="black"/>
        <path d="M153.92 57.0098H22.3999V227.66H153.92V57.0098Z" stroke="black" stroke-miterlimit="10"/>
        <path d="M150.18 61.8496H26.1299V222.82H150.18V61.8496Z" stroke="black" stroke-miterlimit="10"/>
        <path d="M119.08 102.21H57.23V182.46H119.08V102.21Z" stroke="black" stroke-miterlimit="10"/>
        <path d="M281.63 120.14L284.38 100.61C289.76 97.2901 294.74 93.6801 299.32 89.7801C303.89 85.8801 307.69 81.5801 310.71 76.8801C313.73 72.1801 315.62 67.0601 316.4 61.5301C317.01 57.2201 316.51 53.7301 314.9 51.0401C313.29 48.3601 310.64 46.7501 306.95 46.2301C303.67 45.7701 300.95 46.3201 298.79 47.9001C296.63 49.4801 295.33 51.8601 294.88 55.0301C294.68 56.4701 294.64 57.8201 294.78 59.0901C294.91 60.3601 295.08 61.7501 295.29 63.2401L275.63 64.7001C275.2 62.5501 274.95 60.4501 274.87 58.4001C274.79 56.3501 274.9 54.3001 275.19 52.2501C276.4 43.6401 280.01 37.1401 286.02 32.7601C292.02 28.3801 299.95 26.8801 309.79 28.2701C319.84 29.6901 327.25 33.5001 332.02 39.7201C336.79 45.9401 338.47 54.0701 337.05 64.1101C336.12 70.6701 334.12 76.5601 331.03 81.7701C327.94 86.9801 323.96 91.7001 319.07 95.9301C314.18 100.16 308.67 104.08 302.51 107.71L300.38 122.78L281.62 120.13L281.63 120.14ZM276.35 152.02L279.23 131.57L299.84 134.48L296.96 154.93L276.35 152.02Z" stroke="black" stroke-miterlimit="10"/>
        <path d="M171.51 204.53C171.51 204.53 107.31 205.39 105.32 209.95C103.32 214.52 94.1901 269.87 93.6201 288.98C93.0501 308.1 92.7601 320.65 94.7601 322.93C96.7601 325.21 127.86 343.19 127.86 343.19C127.86 343.19 113.31 394.26 117.87 395.97C122.44 397.68 150.4 404.81 168.37 405.1C186.34 405.39 204.03 405.39 205.46 405.39C206.89 405.39 252.82 407.1 268.8 403.39C284.78 399.68 289.63 399.4 289.63 393.12C289.63 386.84 285.64 379.14 285.35 377.71C285.06 376.28 296.19 268.15 289.91 241.61C283.63 215.07 275.36 204.8 269.08 203.09C262.8 201.38 218.01 202.52 218.01 202.52L171.5 204.52L171.51 204.53Z" fill="#00812A" stroke="black" stroke-linecap="round" stroke-linejoin="round"/>
        <path d="M205.7 227.489C203.59 228.719 201.36 229.849 199.02 230.849" stroke="black" stroke-linecap="round" stroke-linejoin="round"/>
        <path d="M229.49 205.92C229.49 205.92 221.7 217.15 208.72 225.63" stroke="black" stroke-linecap="round" stroke-linejoin="round"/>
        <path d="M225.68 217.35C225.68 217.35 219.79 225.66 214.6 228.43" stroke="black" stroke-linecap="round" stroke-linejoin="round"/>
        <path d="M184.89 308.76L183.21 303.54" stroke="black" stroke-linecap="round" stroke-linejoin="round"/>
        <path d="M194.05 337.209L186.62 314.109" stroke="black" stroke-linecap="round" stroke-linejoin="round"/>
        <path d="M196.34 337.78L203.75 326.08" stroke="black" stroke-linecap="round" stroke-linejoin="round"/>
        <path d="M213.17 330.93L231.14 310.67" stroke="black" stroke-linecap="round" stroke-linejoin="round"/>
        <path d="M166.78 394.12L205.47 405.4" stroke="black" stroke-linecap="round" stroke-linejoin="round"/>
        <path d="M155.54 390.85L162.18 392.78" stroke="black" stroke-linecap="round" stroke-linejoin="round"/>
        <path d="M171.11 77.6399C171.11 77.6399 150.95 73.0099 147.14 78.1799C143.33 83.3599 150.95 88.2599 149.86 89.3499C148.77 90.4399 125.34 102.43 127.25 114.14C129.16 125.85 144.96 137.84 145.5 141.11C146.04 144.38 127.25 145.47 124.8 150.37C122.35 155.27 118.81 178.43 139.24 186.06C159.67 193.69 185.28 180.88 192.36 180.88C199.44 180.88 206.53 194.77 214.7 193.96C222.87 193.14 227.5 187.15 227.5 187.15C227.5 187.15 235.95 198.86 248.2 193.96C260.46 189.06 274.63 171.89 268.63 166.72C262.64 161.54 255.83 159.91 260.18 155.28C264.54 150.65 273.53 138.39 272.17 127.76C270.81 117.14 258.28 116.32 253.37 113.05C248.47 109.78 258.82 104.33 258.55 95.3399C258.28 86.3499 251.74 71.3699 218.5 61.2899C185.26 51.2099 168.92 56.1099 167.28 64.5599C165.65 73.0099 171.09 77.6399 171.09 77.6399H171.11Z" fill="black" stroke="black" stroke-linecap="round" stroke-linejoin="round"/>
        <path d="M174.74 165.05C174.74 165.05 167.93 207.55 167.66 208.91C167.39 210.27 179.65 222.53 196.27 220.35C212.89 218.17 221.33 207 221.33 207L216.15 164.77C216.15 164.77 201.98 171.58 193.27 171.31C184.55 171.04 174.74 165.04 174.74 165.04V165.05Z" fill="white" stroke="black" stroke-linecap="round" stroke-linejoin="round"/>
        <path d="M171.94 187.85L200.63 182.3L174.74 165.05L171.94 187.85Z" fill="black" stroke="black" stroke-linecap="round" stroke-linejoin="round"/>
        <path d="M159.6 127.58C159.6 127.58 154.8 121.5 152.56 129.18C150.32 136.86 159.92 146.14 159.92 146.14L159.6 127.58Z" fill="white" stroke="black" stroke-linecap="round" stroke-linejoin="round"/>
        <path d="M228.37 127.58C228.37 127.58 233.17 121.5 235.41 129.18C237.65 136.86 228.05 146.14 228.05 146.14L228.37 127.58Z" fill="white" stroke="black" stroke-linecap="round" stroke-linejoin="round"/>
        <path d="M174.68 89.1598C174.68 89.1598 160.94 102.5 158.95 106.48C156.96 110.46 157.76 156.06 159.95 160.44C162.14 164.82 184.04 181.94 187.63 183.34C191.21 184.73 199.38 186.13 205.75 182.94C212.12 179.75 227.45 163.43 229.05 159.25C230.64 155.07 228.65 107.28 227.66 102.7C226.66 98.1198 202.57 81.7898 192.42 80.9998C182.27 80.1998 174.7 89.1598 174.7 89.1598H174.68Z" fill="white" stroke="black" stroke-linecap="round" stroke-linejoin="round"/>
        <path d="M185.48 81.0002C185.48 81.0002 206.06 99.7702 220.86 100.5L235.66 101.22C235.66 101.22 203.17 96.8902 193.06 74.8602C193.06 74.8602 181.87 65.4702 185.48 81.0002Z" fill="black" stroke="black" stroke-linecap="round" stroke-linejoin="round"/>
        <path d="M196.98 118.23L198.57 138.34" stroke="black" stroke-linecap="round" stroke-linejoin="round"/>
        <path d="M200.16 142.521C200.16 142.521 196.58 147.9 193.99 147.9C191.4 147.9 188.81 144.911 188.81 144.911" stroke="black" stroke-linecap="round" stroke-linejoin="round"/>
        <path d="M178.46 149.09C178.46 149.09 183.04 156.66 189.01 157.05C194.98 157.45 201.35 155.66 201.35 155.66" stroke="black" stroke-linecap="round" stroke-linejoin="round"/>
        <path d="M199.37 115.04C199.37 115.04 206.34 109.86 209.13 108.07C211.92 106.28 220.88 109.66 220.88 109.66C220.88 109.66 214.11 105.88 210.53 105.28C206.95 104.68 199.58 109.86 198.98 112.25C198.38 114.64 196.59 114.04 199.38 115.04H199.37Z" fill="black" stroke="black" stroke-linecap="round" stroke-linejoin="round"/>
        <path d="M185.03 116C185.03 116 184.03 113.21 180.65 113.01C177.27 112.81 162.33 116.79 164.92 116.79C167.51 116.79 178.26 116.59 181.05 116.59C183.84 116.59 185.03 115.99 185.03 115.99V116Z" fill="black" stroke="black" stroke-linecap="round" stroke-linejoin="round"/>
        <path d="M219.28 127.391C219.28 127.391 214.1 128.581 210.12 128.391C206.14 128.191 202.55 127.001 204.15 128.791C205.74 130.581 208.93 132.171 213.91 131.181C218.89 130.181 220.68 129.191 219.29 127.401L219.28 127.391Z" fill="black"/>
        <path d="M183.24 127.391C183.24 127.391 178.06 128.581 174.08 128.391C170.1 128.191 166.51 127.001 168.11 128.791C169.7 130.581 172.89 132.171 177.87 131.181C182.85 130.181 184.64 129.191 183.25 127.401L183.24 127.391Z" fill="black"/>
        <path d="M116.98 242.14C116.98 242.14 122.97 209.18 125.7 205.91C128.43 202.64 158.12 178.39 159.75 176.76C161.38 175.13 173.1 157.42 173.64 159.6C174.18 161.78 172.28 171.31 168.74 176.49C165.2 181.67 160.29 187.93 160.29 187.93C160.29 187.93 178.54 192.56 179.63 193.65C180.72 194.74 186.92 208.31 187.26 210C187.84 212.92 187 216.05 184.54 216.27C182.3 216.47 167.65 208.91 167.65 208.91L155.94 210.54C155.94 210.54 147.49 220.89 141.77 222.8C136.05 224.71 133.87 224.98 133.87 224.98L134.14 245.14L116.98 242.14Z" fill="white" stroke="black" stroke-linecap="round" stroke-linejoin="round"/>
        <path d="M161.18 194.149C161.18 194.149 177.09 196.279 178.06 197.059C179.03 197.839 187.27 209.999 187.27 209.999" stroke="black" stroke-linecap="round" stroke-linejoin="round"/>
        <path d="M162.27 201.399C162.27 201.399 178.06 205.019 179.22 205.989C180.38 206.959 186.59 214.139 186.59 214.139" stroke="black" stroke-linecap="round" stroke-linejoin="round"/>
        <path d="M186.92 340.34C186.92 340.34 165.52 336.35 164.67 336.06C163.81 335.77 148.69 331.21 146.7 330.35C144.7 329.49 120.45 325.21 119.31 326.93C118.17 328.64 117.03 338.63 116.74 339.48C116.45 340.34 114.17 344.33 114.74 346.61C115.31 348.89 114.74 352.89 114.74 352.89C114.74 352.89 114.45 366.3 117.88 366.59C121.3 366.88 124.44 354.04 124.44 354.04C124.44 354.04 129.29 356.89 139.28 357.46C149.27 358.03 158.97 353.18 158.97 353.18L185.5 359.46L186.93 340.34H186.92Z" fill="white" stroke="black" stroke-linecap="round" stroke-linejoin="round"/>
        <path d="M112.91 236.32L141.63 241.57L140.53 259.52C140.53 259.52 146.88 262.56 148.82 280.23C150.75 297.91 156.28 338.96 154.9 342C153.52 345.04 144.96 358.3 125.07 359.12C105.18 359.95 94.41 341.72 92.48 335.92C90.55 330.12 100.77 292.1 101.32 288.79C101.87 285.48 104.63 262.83 107.12 258.96C109.61 255.09 112.64 252.61 112.64 252.61L112.92 236.31L112.91 236.32Z" fill="#00812A" stroke="black" stroke-linecap="round" stroke-linejoin="round"/>
        <path d="M130.76 257.01C132.39 257.2 134.01 257.31 135.56 257.31" stroke="black" stroke-linecap="round" stroke-linejoin="round"/>
        <path d="M112.63 252.619C112.63 252.619 117.76 254.479 124.04 255.849" stroke="black" stroke-linecap="round" stroke-linejoin="round"/>
        <path d="M270.8 245.33L267.95 318.94C267.95 318.94 264.81 319.229 263.67 320.649C262.53 322.079 261.67 323.79 261.67 323.79C261.67 323.79 232.85 324.929 219.16 328.929C205.46 332.919 196.33 337.77 196.33 337.77L183.78 337.48L181.21 370.579L198.04 371.15C198.04 371.15 206.31 376 243.98 379.42C281.64 382.84 299.05 383.7 303.04 379.13C307.03 374.56 308.75 367.43 309.32 363.72C309.89 360.01 316.74 337.189 316.74 304.09C316.74 270.99 285.64 223.06 278.79 212.22C271.94 201.38 264.81 202.23 259.96 203.38" fill="#00812A"/>
        <path d="M270.8 245.33L267.95 318.94C267.95 318.94 264.81 319.229 263.67 320.649C262.53 322.079 261.67 323.79 261.67 323.79C261.67 323.79 232.85 324.929 219.16 328.929C205.46 332.919 196.33 337.77 196.33 337.77L183.78 337.48L181.21 370.579L198.04 371.15C198.04 371.15 206.31 376 243.98 379.42C281.64 382.84 299.05 383.7 303.04 379.13C307.03 374.56 308.75 367.43 309.32 363.72C309.89 360.01 316.74 337.189 316.74 304.09C316.74 270.99 285.64 223.06 278.79 212.22C271.94 201.38 264.81 202.23 259.96 203.38" stroke="black" stroke-linecap="round" stroke-linejoin="round"/>
        <path d="M285.46 313.869L267.95 318.949L284.5 303.539" stroke="black" stroke-linecap="round" stroke-linejoin="round"/>
        <path d="M296.48 310.67L290.94 312.28" stroke="black" stroke-linecap="round" stroke-linejoin="round"/>
        <path d="M261.67 323.8C261.67 323.8 279.93 325.23 287.35 328.08" stroke="black" stroke-linecap="round" stroke-linejoin="round"/>
        <path d="M290.01 340.05C290.87 340.94 291.7 341.9 292.49 342.91" stroke="black" stroke-linecap="round" stroke-linejoin="round"/>
        <path d="M269.09 327.789C269.09 327.789 278.2 329.979 286.52 336.819" stroke="black" stroke-linecap="round" stroke-linejoin="round"/>
        <path d="M196.05 340.92L196.34 368.59" stroke="black" stroke-linecap="round" stroke-linejoin="round"/>
        <path d="M182.35 361.739H194.34" stroke="black" stroke-linecap="round" stroke-linejoin="round"/>
        <path d="M185.21 345.479L190.06 345.199" stroke="black" stroke-linecap="round" stroke-linejoin="round"/>
    </g>
    <defs>
        <clipPath id="clip0_139_3891">
            <rect width="432.29" height="414.65" fill="white"/>
        </clipPath>
    </defs>
</svg>
